<mxfile host="app.diagrams.net" modified="2022-03-09T23:19:15.254Z" agent="5.0 (X11; Linux x86_64) AppleWebKit/537.36 (KHTML, like Gecko) Chrome/90.0.4430.212 Safari/537.36" etag="IAXiRAM51CmrJz_u0A2m" version="17.0.0" type="github" pages="2">
  <diagram id="RtptzdeFo02XQHRS1fy-" name="icache">
    <mxGraphModel dx="1483" dy="479" grid="1" gridSize="10" guides="1" tooltips="1" connect="1" arrows="1" fold="1" page="1" pageScale="1" pageWidth="850" pageHeight="1100" math="0" shadow="0">
      <root>
        <mxCell id="0" />
        <mxCell id="1" parent="0" />
        <mxCell id="e3zNjsiBfACALDZ_TH6k-3" value="" style="shape=table;html=1;whiteSpace=wrap;startSize=0;container=1;collapsible=0;childLayout=tableLayout;" parent="1" vertex="1">
          <mxGeometry x="390" y="150" width="360" height="480" as="geometry" />
        </mxCell>
        <mxCell id="e3zNjsiBfACALDZ_TH6k-140" value="" style="shape=tableRow;horizontal=0;startSize=0;swimlaneHead=0;swimlaneBody=0;top=0;left=0;bottom=0;right=0;collapsible=0;dropTarget=0;fillColor=none;points=[[0,0.5],[1,0.5]];portConstraint=eastwest;" parent="e3zNjsiBfACALDZ_TH6k-3" vertex="1">
          <mxGeometry width="360" height="30" as="geometry" />
        </mxCell>
        <mxCell id="e3zNjsiBfACALDZ_TH6k-141" value="Valid&lt;br&gt;0" style="shape=partialRectangle;html=1;whiteSpace=wrap;connectable=0;fillColor=none;top=0;left=0;bottom=0;right=0;overflow=hidden;" parent="e3zNjsiBfACALDZ_TH6k-140" vertex="1">
          <mxGeometry width="50" height="30" as="geometry">
            <mxRectangle width="50" height="30" as="alternateBounds" />
          </mxGeometry>
        </mxCell>
        <mxCell id="e3zNjsiBfACALDZ_TH6k-142" value="Tag | Byte Offset" style="shape=partialRectangle;html=1;whiteSpace=wrap;connectable=0;fillColor=none;top=0;left=0;bottom=0;right=0;overflow=hidden;" parent="e3zNjsiBfACALDZ_TH6k-140" vertex="1">
          <mxGeometry x="50" width="170" height="30" as="geometry">
            <mxRectangle width="170" height="30" as="alternateBounds" />
          </mxGeometry>
        </mxCell>
        <mxCell id="e3zNjsiBfACALDZ_TH6k-143" value="&lt;span&gt;4-Byte Word&lt;/span&gt;" style="shape=partialRectangle;html=1;whiteSpace=wrap;connectable=0;fillColor=none;top=0;left=0;bottom=0;right=0;overflow=hidden;" parent="e3zNjsiBfACALDZ_TH6k-140" vertex="1">
          <mxGeometry x="220" width="140" height="30" as="geometry">
            <mxRectangle width="140" height="30" as="alternateBounds" />
          </mxGeometry>
        </mxCell>
        <mxCell id="e3zNjsiBfACALDZ_TH6k-8" value="" style="shape=tableRow;horizontal=0;startSize=0;swimlaneHead=0;swimlaneBody=0;top=0;left=0;bottom=0;right=0;collapsible=0;dropTarget=0;fillColor=none;points=[[0,0.5],[1,0.5]];portConstraint=eastwest;" parent="e3zNjsiBfACALDZ_TH6k-3" vertex="1">
          <mxGeometry y="30" width="360" height="30" as="geometry" />
        </mxCell>
        <mxCell id="e3zNjsiBfACALDZ_TH6k-9" value="Valid&lt;br&gt;1" style="shape=partialRectangle;html=1;whiteSpace=wrap;connectable=0;fillColor=none;top=0;left=0;bottom=0;right=0;overflow=hidden;" parent="e3zNjsiBfACALDZ_TH6k-8" vertex="1">
          <mxGeometry width="50" height="30" as="geometry">
            <mxRectangle width="50" height="30" as="alternateBounds" />
          </mxGeometry>
        </mxCell>
        <mxCell id="e3zNjsiBfACALDZ_TH6k-10" value="Tag | Byte Offset" style="shape=partialRectangle;html=1;whiteSpace=wrap;connectable=0;fillColor=none;top=0;left=0;bottom=0;right=0;overflow=hidden;" parent="e3zNjsiBfACALDZ_TH6k-8" vertex="1">
          <mxGeometry x="50" width="170" height="30" as="geometry">
            <mxRectangle width="170" height="30" as="alternateBounds" />
          </mxGeometry>
        </mxCell>
        <mxCell id="e3zNjsiBfACALDZ_TH6k-11" value="&lt;span&gt;4-Byte Word&lt;/span&gt;" style="shape=partialRectangle;html=1;whiteSpace=wrap;connectable=0;fillColor=none;top=0;left=0;bottom=0;right=0;overflow=hidden;" parent="e3zNjsiBfACALDZ_TH6k-8" vertex="1">
          <mxGeometry x="220" width="140" height="30" as="geometry">
            <mxRectangle width="140" height="30" as="alternateBounds" />
          </mxGeometry>
        </mxCell>
        <mxCell id="e3zNjsiBfACALDZ_TH6k-12" value="" style="shape=tableRow;horizontal=0;startSize=0;swimlaneHead=0;swimlaneBody=0;top=0;left=0;bottom=0;right=0;collapsible=0;dropTarget=0;fillColor=none;points=[[0,0.5],[1,0.5]];portConstraint=eastwest;" parent="e3zNjsiBfACALDZ_TH6k-3" vertex="1">
          <mxGeometry y="60" width="360" height="30" as="geometry" />
        </mxCell>
        <mxCell id="e3zNjsiBfACALDZ_TH6k-13" value="Valid&lt;br&gt;2" style="shape=partialRectangle;html=1;whiteSpace=wrap;connectable=0;fillColor=none;top=0;left=0;bottom=0;right=0;overflow=hidden;" parent="e3zNjsiBfACALDZ_TH6k-12" vertex="1">
          <mxGeometry width="50" height="30" as="geometry">
            <mxRectangle width="50" height="30" as="alternateBounds" />
          </mxGeometry>
        </mxCell>
        <mxCell id="e3zNjsiBfACALDZ_TH6k-14" value="Tag | Byte Offset" style="shape=partialRectangle;html=1;whiteSpace=wrap;connectable=0;fillColor=none;top=0;left=0;bottom=0;right=0;overflow=hidden;" parent="e3zNjsiBfACALDZ_TH6k-12" vertex="1">
          <mxGeometry x="50" width="170" height="30" as="geometry">
            <mxRectangle width="170" height="30" as="alternateBounds" />
          </mxGeometry>
        </mxCell>
        <mxCell id="e3zNjsiBfACALDZ_TH6k-15" value="&lt;span&gt;4-Byte Word&lt;/span&gt;" style="shape=partialRectangle;html=1;whiteSpace=wrap;connectable=0;fillColor=none;top=0;left=0;bottom=0;right=0;overflow=hidden;pointerEvents=1;" parent="e3zNjsiBfACALDZ_TH6k-12" vertex="1">
          <mxGeometry x="220" width="140" height="30" as="geometry">
            <mxRectangle width="140" height="30" as="alternateBounds" />
          </mxGeometry>
        </mxCell>
        <mxCell id="e3zNjsiBfACALDZ_TH6k-19" value="" style="shape=tableRow;horizontal=0;startSize=0;swimlaneHead=0;swimlaneBody=0;top=0;left=0;bottom=0;right=0;collapsible=0;dropTarget=0;fillColor=none;points=[[0,0.5],[1,0.5]];portConstraint=eastwest;" parent="e3zNjsiBfACALDZ_TH6k-3" vertex="1">
          <mxGeometry y="90" width="360" height="30" as="geometry" />
        </mxCell>
        <mxCell id="e3zNjsiBfACALDZ_TH6k-20" value="Valid&lt;br&gt;3" style="shape=partialRectangle;html=1;whiteSpace=wrap;connectable=0;fillColor=none;top=0;left=0;bottom=0;right=0;overflow=hidden;" parent="e3zNjsiBfACALDZ_TH6k-19" vertex="1">
          <mxGeometry width="50" height="30" as="geometry">
            <mxRectangle width="50" height="30" as="alternateBounds" />
          </mxGeometry>
        </mxCell>
        <mxCell id="e3zNjsiBfACALDZ_TH6k-21" value="Tag | Byte Offset" style="shape=partialRectangle;html=1;whiteSpace=wrap;connectable=0;fillColor=none;top=0;left=0;bottom=0;right=0;overflow=hidden;" parent="e3zNjsiBfACALDZ_TH6k-19" vertex="1">
          <mxGeometry x="50" width="170" height="30" as="geometry">
            <mxRectangle width="170" height="30" as="alternateBounds" />
          </mxGeometry>
        </mxCell>
        <mxCell id="e3zNjsiBfACALDZ_TH6k-22" value="&lt;span&gt;4-Byte Word&lt;/span&gt;" style="shape=partialRectangle;html=1;whiteSpace=wrap;connectable=0;fillColor=none;top=0;left=0;bottom=0;right=0;overflow=hidden;pointerEvents=1;" parent="e3zNjsiBfACALDZ_TH6k-19" vertex="1">
          <mxGeometry x="220" width="140" height="30" as="geometry">
            <mxRectangle width="140" height="30" as="alternateBounds" />
          </mxGeometry>
        </mxCell>
        <mxCell id="e3zNjsiBfACALDZ_TH6k-23" value="" style="shape=tableRow;horizontal=0;startSize=0;swimlaneHead=0;swimlaneBody=0;top=0;left=0;bottom=0;right=0;collapsible=0;dropTarget=0;fillColor=none;points=[[0,0.5],[1,0.5]];portConstraint=eastwest;" parent="e3zNjsiBfACALDZ_TH6k-3" vertex="1">
          <mxGeometry y="120" width="360" height="30" as="geometry" />
        </mxCell>
        <mxCell id="e3zNjsiBfACALDZ_TH6k-24" value="Valid&lt;br&gt;4" style="shape=partialRectangle;html=1;whiteSpace=wrap;connectable=0;fillColor=none;top=0;left=0;bottom=0;right=0;overflow=hidden;" parent="e3zNjsiBfACALDZ_TH6k-23" vertex="1">
          <mxGeometry width="50" height="30" as="geometry">
            <mxRectangle width="50" height="30" as="alternateBounds" />
          </mxGeometry>
        </mxCell>
        <mxCell id="e3zNjsiBfACALDZ_TH6k-25" value="Tag | Byte Offset" style="shape=partialRectangle;html=1;whiteSpace=wrap;connectable=0;fillColor=none;top=0;left=0;bottom=0;right=0;overflow=hidden;" parent="e3zNjsiBfACALDZ_TH6k-23" vertex="1">
          <mxGeometry x="50" width="170" height="30" as="geometry">
            <mxRectangle width="170" height="30" as="alternateBounds" />
          </mxGeometry>
        </mxCell>
        <mxCell id="e3zNjsiBfACALDZ_TH6k-26" value="&lt;span&gt;4-Byte Word&lt;/span&gt;" style="shape=partialRectangle;html=1;whiteSpace=wrap;connectable=0;fillColor=none;top=0;left=0;bottom=0;right=0;overflow=hidden;pointerEvents=1;" parent="e3zNjsiBfACALDZ_TH6k-23" vertex="1">
          <mxGeometry x="220" width="140" height="30" as="geometry">
            <mxRectangle width="140" height="30" as="alternateBounds" />
          </mxGeometry>
        </mxCell>
        <mxCell id="e3zNjsiBfACALDZ_TH6k-27" value="" style="shape=tableRow;horizontal=0;startSize=0;swimlaneHead=0;swimlaneBody=0;top=0;left=0;bottom=0;right=0;collapsible=0;dropTarget=0;fillColor=none;points=[[0,0.5],[1,0.5]];portConstraint=eastwest;" parent="e3zNjsiBfACALDZ_TH6k-3" vertex="1">
          <mxGeometry y="150" width="360" height="30" as="geometry" />
        </mxCell>
        <mxCell id="e3zNjsiBfACALDZ_TH6k-28" value="Valid&lt;br&gt;5" style="shape=partialRectangle;html=1;whiteSpace=wrap;connectable=0;fillColor=none;top=0;left=0;bottom=0;right=0;overflow=hidden;" parent="e3zNjsiBfACALDZ_TH6k-27" vertex="1">
          <mxGeometry width="50" height="30" as="geometry">
            <mxRectangle width="50" height="30" as="alternateBounds" />
          </mxGeometry>
        </mxCell>
        <mxCell id="e3zNjsiBfACALDZ_TH6k-29" value="Tag | Byte Offset" style="shape=partialRectangle;html=1;whiteSpace=wrap;connectable=0;fillColor=none;top=0;left=0;bottom=0;right=0;overflow=hidden;" parent="e3zNjsiBfACALDZ_TH6k-27" vertex="1">
          <mxGeometry x="50" width="170" height="30" as="geometry">
            <mxRectangle width="170" height="30" as="alternateBounds" />
          </mxGeometry>
        </mxCell>
        <mxCell id="e3zNjsiBfACALDZ_TH6k-30" value="&lt;span&gt;4-Byte Word&lt;/span&gt;" style="shape=partialRectangle;html=1;whiteSpace=wrap;connectable=0;fillColor=none;top=0;left=0;bottom=0;right=0;overflow=hidden;pointerEvents=1;" parent="e3zNjsiBfACALDZ_TH6k-27" vertex="1">
          <mxGeometry x="220" width="140" height="30" as="geometry">
            <mxRectangle width="140" height="30" as="alternateBounds" />
          </mxGeometry>
        </mxCell>
        <mxCell id="e3zNjsiBfACALDZ_TH6k-31" value="" style="shape=tableRow;horizontal=0;startSize=0;swimlaneHead=0;swimlaneBody=0;top=0;left=0;bottom=0;right=0;collapsible=0;dropTarget=0;fillColor=none;points=[[0,0.5],[1,0.5]];portConstraint=eastwest;" parent="e3zNjsiBfACALDZ_TH6k-3" vertex="1">
          <mxGeometry y="180" width="360" height="30" as="geometry" />
        </mxCell>
        <mxCell id="e3zNjsiBfACALDZ_TH6k-32" value="Valid&lt;br&gt;6" style="shape=partialRectangle;html=1;whiteSpace=wrap;connectable=0;fillColor=none;top=0;left=0;bottom=0;right=0;overflow=hidden;" parent="e3zNjsiBfACALDZ_TH6k-31" vertex="1">
          <mxGeometry width="50" height="30" as="geometry">
            <mxRectangle width="50" height="30" as="alternateBounds" />
          </mxGeometry>
        </mxCell>
        <mxCell id="e3zNjsiBfACALDZ_TH6k-33" value="Tag | Byte Offset" style="shape=partialRectangle;html=1;whiteSpace=wrap;connectable=0;fillColor=none;top=0;left=0;bottom=0;right=0;overflow=hidden;" parent="e3zNjsiBfACALDZ_TH6k-31" vertex="1">
          <mxGeometry x="50" width="170" height="30" as="geometry">
            <mxRectangle width="170" height="30" as="alternateBounds" />
          </mxGeometry>
        </mxCell>
        <mxCell id="e3zNjsiBfACALDZ_TH6k-34" value="&lt;span&gt;4-Byte Word&lt;/span&gt;" style="shape=partialRectangle;html=1;whiteSpace=wrap;connectable=0;fillColor=none;top=0;left=0;bottom=0;right=0;overflow=hidden;pointerEvents=1;" parent="e3zNjsiBfACALDZ_TH6k-31" vertex="1">
          <mxGeometry x="220" width="140" height="30" as="geometry">
            <mxRectangle width="140" height="30" as="alternateBounds" />
          </mxGeometry>
        </mxCell>
        <mxCell id="e3zNjsiBfACALDZ_TH6k-35" value="" style="shape=tableRow;horizontal=0;startSize=0;swimlaneHead=0;swimlaneBody=0;top=0;left=0;bottom=0;right=0;collapsible=0;dropTarget=0;fillColor=none;points=[[0,0.5],[1,0.5]];portConstraint=eastwest;" parent="e3zNjsiBfACALDZ_TH6k-3" vertex="1">
          <mxGeometry y="210" width="360" height="30" as="geometry" />
        </mxCell>
        <mxCell id="e3zNjsiBfACALDZ_TH6k-36" value="Valid&lt;br&gt;7" style="shape=partialRectangle;html=1;whiteSpace=wrap;connectable=0;fillColor=none;top=0;left=0;bottom=0;right=0;overflow=hidden;" parent="e3zNjsiBfACALDZ_TH6k-35" vertex="1">
          <mxGeometry width="50" height="30" as="geometry">
            <mxRectangle width="50" height="30" as="alternateBounds" />
          </mxGeometry>
        </mxCell>
        <mxCell id="e3zNjsiBfACALDZ_TH6k-37" value="Tag | Byte Offset" style="shape=partialRectangle;html=1;whiteSpace=wrap;connectable=0;fillColor=none;top=0;left=0;bottom=0;right=0;overflow=hidden;" parent="e3zNjsiBfACALDZ_TH6k-35" vertex="1">
          <mxGeometry x="50" width="170" height="30" as="geometry">
            <mxRectangle width="170" height="30" as="alternateBounds" />
          </mxGeometry>
        </mxCell>
        <mxCell id="e3zNjsiBfACALDZ_TH6k-38" value="&lt;span&gt;4-Byte Word&lt;/span&gt;" style="shape=partialRectangle;html=1;whiteSpace=wrap;connectable=0;fillColor=none;top=0;left=0;bottom=0;right=0;overflow=hidden;pointerEvents=1;" parent="e3zNjsiBfACALDZ_TH6k-35" vertex="1">
          <mxGeometry x="220" width="140" height="30" as="geometry">
            <mxRectangle width="140" height="30" as="alternateBounds" />
          </mxGeometry>
        </mxCell>
        <mxCell id="e3zNjsiBfACALDZ_TH6k-39" value="" style="shape=tableRow;horizontal=0;startSize=0;swimlaneHead=0;swimlaneBody=0;top=0;left=0;bottom=0;right=0;collapsible=0;dropTarget=0;fillColor=none;points=[[0,0.5],[1,0.5]];portConstraint=eastwest;" parent="e3zNjsiBfACALDZ_TH6k-3" vertex="1">
          <mxGeometry y="240" width="360" height="30" as="geometry" />
        </mxCell>
        <mxCell id="e3zNjsiBfACALDZ_TH6k-40" value="Valid&lt;br&gt;8" style="shape=partialRectangle;html=1;whiteSpace=wrap;connectable=0;fillColor=none;top=0;left=0;bottom=0;right=0;overflow=hidden;" parent="e3zNjsiBfACALDZ_TH6k-39" vertex="1">
          <mxGeometry width="50" height="30" as="geometry">
            <mxRectangle width="50" height="30" as="alternateBounds" />
          </mxGeometry>
        </mxCell>
        <mxCell id="e3zNjsiBfACALDZ_TH6k-41" value="Tag | Byte Offset" style="shape=partialRectangle;html=1;whiteSpace=wrap;connectable=0;fillColor=none;top=0;left=0;bottom=0;right=0;overflow=hidden;" parent="e3zNjsiBfACALDZ_TH6k-39" vertex="1">
          <mxGeometry x="50" width="170" height="30" as="geometry">
            <mxRectangle width="170" height="30" as="alternateBounds" />
          </mxGeometry>
        </mxCell>
        <mxCell id="e3zNjsiBfACALDZ_TH6k-42" value="&lt;span&gt;4-Byte Word&lt;/span&gt;" style="shape=partialRectangle;html=1;whiteSpace=wrap;connectable=0;fillColor=none;top=0;left=0;bottom=0;right=0;overflow=hidden;pointerEvents=1;" parent="e3zNjsiBfACALDZ_TH6k-39" vertex="1">
          <mxGeometry x="220" width="140" height="30" as="geometry">
            <mxRectangle width="140" height="30" as="alternateBounds" />
          </mxGeometry>
        </mxCell>
        <mxCell id="e3zNjsiBfACALDZ_TH6k-43" value="" style="shape=tableRow;horizontal=0;startSize=0;swimlaneHead=0;swimlaneBody=0;top=0;left=0;bottom=0;right=0;collapsible=0;dropTarget=0;fillColor=none;points=[[0,0.5],[1,0.5]];portConstraint=eastwest;" parent="e3zNjsiBfACALDZ_TH6k-3" vertex="1">
          <mxGeometry y="270" width="360" height="30" as="geometry" />
        </mxCell>
        <mxCell id="e3zNjsiBfACALDZ_TH6k-44" value="Valid&lt;br&gt;9" style="shape=partialRectangle;html=1;whiteSpace=wrap;connectable=0;fillColor=none;top=0;left=0;bottom=0;right=0;overflow=hidden;" parent="e3zNjsiBfACALDZ_TH6k-43" vertex="1">
          <mxGeometry width="50" height="30" as="geometry">
            <mxRectangle width="50" height="30" as="alternateBounds" />
          </mxGeometry>
        </mxCell>
        <mxCell id="e3zNjsiBfACALDZ_TH6k-45" value="Tag | Byte Offset" style="shape=partialRectangle;html=1;whiteSpace=wrap;connectable=0;fillColor=none;top=0;left=0;bottom=0;right=0;overflow=hidden;" parent="e3zNjsiBfACALDZ_TH6k-43" vertex="1">
          <mxGeometry x="50" width="170" height="30" as="geometry">
            <mxRectangle width="170" height="30" as="alternateBounds" />
          </mxGeometry>
        </mxCell>
        <mxCell id="e3zNjsiBfACALDZ_TH6k-46" value="&lt;span&gt;4-Byte Word&lt;/span&gt;" style="shape=partialRectangle;html=1;whiteSpace=wrap;connectable=0;fillColor=none;top=0;left=0;bottom=0;right=0;overflow=hidden;pointerEvents=1;" parent="e3zNjsiBfACALDZ_TH6k-43" vertex="1">
          <mxGeometry x="220" width="140" height="30" as="geometry">
            <mxRectangle width="140" height="30" as="alternateBounds" />
          </mxGeometry>
        </mxCell>
        <mxCell id="e3zNjsiBfACALDZ_TH6k-47" value="" style="shape=tableRow;horizontal=0;startSize=0;swimlaneHead=0;swimlaneBody=0;top=0;left=0;bottom=0;right=0;collapsible=0;dropTarget=0;fillColor=none;points=[[0,0.5],[1,0.5]];portConstraint=eastwest;" parent="e3zNjsiBfACALDZ_TH6k-3" vertex="1">
          <mxGeometry y="300" width="360" height="30" as="geometry" />
        </mxCell>
        <mxCell id="e3zNjsiBfACALDZ_TH6k-48" value="Valid&lt;br&gt;10" style="shape=partialRectangle;html=1;whiteSpace=wrap;connectable=0;fillColor=none;top=0;left=0;bottom=0;right=0;overflow=hidden;" parent="e3zNjsiBfACALDZ_TH6k-47" vertex="1">
          <mxGeometry width="50" height="30" as="geometry">
            <mxRectangle width="50" height="30" as="alternateBounds" />
          </mxGeometry>
        </mxCell>
        <mxCell id="e3zNjsiBfACALDZ_TH6k-49" value="Tag | Byte Offset" style="shape=partialRectangle;html=1;whiteSpace=wrap;connectable=0;fillColor=none;top=0;left=0;bottom=0;right=0;overflow=hidden;" parent="e3zNjsiBfACALDZ_TH6k-47" vertex="1">
          <mxGeometry x="50" width="170" height="30" as="geometry">
            <mxRectangle width="170" height="30" as="alternateBounds" />
          </mxGeometry>
        </mxCell>
        <mxCell id="e3zNjsiBfACALDZ_TH6k-50" value="&lt;span&gt;4-Byte Word&lt;/span&gt;" style="shape=partialRectangle;html=1;whiteSpace=wrap;connectable=0;fillColor=none;top=0;left=0;bottom=0;right=0;overflow=hidden;pointerEvents=1;" parent="e3zNjsiBfACALDZ_TH6k-47" vertex="1">
          <mxGeometry x="220" width="140" height="30" as="geometry">
            <mxRectangle width="140" height="30" as="alternateBounds" />
          </mxGeometry>
        </mxCell>
        <mxCell id="e3zNjsiBfACALDZ_TH6k-51" value="" style="shape=tableRow;horizontal=0;startSize=0;swimlaneHead=0;swimlaneBody=0;top=0;left=0;bottom=0;right=0;collapsible=0;dropTarget=0;fillColor=none;points=[[0,0.5],[1,0.5]];portConstraint=eastwest;" parent="e3zNjsiBfACALDZ_TH6k-3" vertex="1">
          <mxGeometry y="330" width="360" height="30" as="geometry" />
        </mxCell>
        <mxCell id="e3zNjsiBfACALDZ_TH6k-52" value="Valid&lt;br&gt;11" style="shape=partialRectangle;html=1;whiteSpace=wrap;connectable=0;fillColor=none;top=0;left=0;bottom=0;right=0;overflow=hidden;" parent="e3zNjsiBfACALDZ_TH6k-51" vertex="1">
          <mxGeometry width="50" height="30" as="geometry">
            <mxRectangle width="50" height="30" as="alternateBounds" />
          </mxGeometry>
        </mxCell>
        <mxCell id="e3zNjsiBfACALDZ_TH6k-53" value="Tag | Byte Offset" style="shape=partialRectangle;html=1;whiteSpace=wrap;connectable=0;fillColor=none;top=0;left=0;bottom=0;right=0;overflow=hidden;" parent="e3zNjsiBfACALDZ_TH6k-51" vertex="1">
          <mxGeometry x="50" width="170" height="30" as="geometry">
            <mxRectangle width="170" height="30" as="alternateBounds" />
          </mxGeometry>
        </mxCell>
        <mxCell id="e3zNjsiBfACALDZ_TH6k-54" value="&lt;span&gt;4-Byte Word&lt;/span&gt;" style="shape=partialRectangle;html=1;whiteSpace=wrap;connectable=0;fillColor=none;top=0;left=0;bottom=0;right=0;overflow=hidden;pointerEvents=1;" parent="e3zNjsiBfACALDZ_TH6k-51" vertex="1">
          <mxGeometry x="220" width="140" height="30" as="geometry">
            <mxRectangle width="140" height="30" as="alternateBounds" />
          </mxGeometry>
        </mxCell>
        <mxCell id="e3zNjsiBfACALDZ_TH6k-55" value="" style="shape=tableRow;horizontal=0;startSize=0;swimlaneHead=0;swimlaneBody=0;top=0;left=0;bottom=0;right=0;collapsible=0;dropTarget=0;fillColor=none;points=[[0,0.5],[1,0.5]];portConstraint=eastwest;" parent="e3zNjsiBfACALDZ_TH6k-3" vertex="1">
          <mxGeometry y="360" width="360" height="30" as="geometry" />
        </mxCell>
        <mxCell id="e3zNjsiBfACALDZ_TH6k-56" value="Valid&lt;br&gt;12" style="shape=partialRectangle;html=1;whiteSpace=wrap;connectable=0;fillColor=none;top=0;left=0;bottom=0;right=0;overflow=hidden;" parent="e3zNjsiBfACALDZ_TH6k-55" vertex="1">
          <mxGeometry width="50" height="30" as="geometry">
            <mxRectangle width="50" height="30" as="alternateBounds" />
          </mxGeometry>
        </mxCell>
        <mxCell id="e3zNjsiBfACALDZ_TH6k-57" value="Tag | Byte Offset" style="shape=partialRectangle;html=1;whiteSpace=wrap;connectable=0;fillColor=none;top=0;left=0;bottom=0;right=0;overflow=hidden;" parent="e3zNjsiBfACALDZ_TH6k-55" vertex="1">
          <mxGeometry x="50" width="170" height="30" as="geometry">
            <mxRectangle width="170" height="30" as="alternateBounds" />
          </mxGeometry>
        </mxCell>
        <mxCell id="e3zNjsiBfACALDZ_TH6k-58" value="&lt;span&gt;4-Byte Word&lt;/span&gt;" style="shape=partialRectangle;html=1;whiteSpace=wrap;connectable=0;fillColor=none;top=0;left=0;bottom=0;right=0;overflow=hidden;pointerEvents=1;" parent="e3zNjsiBfACALDZ_TH6k-55" vertex="1">
          <mxGeometry x="220" width="140" height="30" as="geometry">
            <mxRectangle width="140" height="30" as="alternateBounds" />
          </mxGeometry>
        </mxCell>
        <mxCell id="e3zNjsiBfACALDZ_TH6k-59" value="" style="shape=tableRow;horizontal=0;startSize=0;swimlaneHead=0;swimlaneBody=0;top=0;left=0;bottom=0;right=0;collapsible=0;dropTarget=0;fillColor=none;points=[[0,0.5],[1,0.5]];portConstraint=eastwest;" parent="e3zNjsiBfACALDZ_TH6k-3" vertex="1">
          <mxGeometry y="390" width="360" height="30" as="geometry" />
        </mxCell>
        <mxCell id="e3zNjsiBfACALDZ_TH6k-60" value="Valid&lt;br&gt;13" style="shape=partialRectangle;html=1;whiteSpace=wrap;connectable=0;fillColor=none;top=0;left=0;bottom=0;right=0;overflow=hidden;" parent="e3zNjsiBfACALDZ_TH6k-59" vertex="1">
          <mxGeometry width="50" height="30" as="geometry">
            <mxRectangle width="50" height="30" as="alternateBounds" />
          </mxGeometry>
        </mxCell>
        <mxCell id="e3zNjsiBfACALDZ_TH6k-61" value="Tag | Byte Offset" style="shape=partialRectangle;html=1;whiteSpace=wrap;connectable=0;fillColor=none;top=0;left=0;bottom=0;right=0;overflow=hidden;" parent="e3zNjsiBfACALDZ_TH6k-59" vertex="1">
          <mxGeometry x="50" width="170" height="30" as="geometry">
            <mxRectangle width="170" height="30" as="alternateBounds" />
          </mxGeometry>
        </mxCell>
        <mxCell id="e3zNjsiBfACALDZ_TH6k-62" value="&lt;span&gt;4-Byte Word&lt;/span&gt;" style="shape=partialRectangle;html=1;whiteSpace=wrap;connectable=0;fillColor=none;top=0;left=0;bottom=0;right=0;overflow=hidden;pointerEvents=1;" parent="e3zNjsiBfACALDZ_TH6k-59" vertex="1">
          <mxGeometry x="220" width="140" height="30" as="geometry">
            <mxRectangle width="140" height="30" as="alternateBounds" />
          </mxGeometry>
        </mxCell>
        <mxCell id="e3zNjsiBfACALDZ_TH6k-63" value="" style="shape=tableRow;horizontal=0;startSize=0;swimlaneHead=0;swimlaneBody=0;top=0;left=0;bottom=0;right=0;collapsible=0;dropTarget=0;fillColor=none;points=[[0,0.5],[1,0.5]];portConstraint=eastwest;" parent="e3zNjsiBfACALDZ_TH6k-3" vertex="1">
          <mxGeometry y="420" width="360" height="30" as="geometry" />
        </mxCell>
        <mxCell id="e3zNjsiBfACALDZ_TH6k-64" value="Valid&lt;br&gt;14" style="shape=partialRectangle;html=1;whiteSpace=wrap;connectable=0;fillColor=none;top=0;left=0;bottom=0;right=0;overflow=hidden;" parent="e3zNjsiBfACALDZ_TH6k-63" vertex="1">
          <mxGeometry width="50" height="30" as="geometry">
            <mxRectangle width="50" height="30" as="alternateBounds" />
          </mxGeometry>
        </mxCell>
        <mxCell id="e3zNjsiBfACALDZ_TH6k-65" value="Tag | Byte Offset" style="shape=partialRectangle;html=1;whiteSpace=wrap;connectable=0;fillColor=none;top=0;left=0;bottom=0;right=0;overflow=hidden;" parent="e3zNjsiBfACALDZ_TH6k-63" vertex="1">
          <mxGeometry x="50" width="170" height="30" as="geometry">
            <mxRectangle width="170" height="30" as="alternateBounds" />
          </mxGeometry>
        </mxCell>
        <mxCell id="e3zNjsiBfACALDZ_TH6k-66" value="&lt;span&gt;4-Byte Word&lt;/span&gt;" style="shape=partialRectangle;html=1;whiteSpace=wrap;connectable=0;fillColor=none;top=0;left=0;bottom=0;right=0;overflow=hidden;pointerEvents=1;" parent="e3zNjsiBfACALDZ_TH6k-63" vertex="1">
          <mxGeometry x="220" width="140" height="30" as="geometry">
            <mxRectangle width="140" height="30" as="alternateBounds" />
          </mxGeometry>
        </mxCell>
        <mxCell id="e3zNjsiBfACALDZ_TH6k-71" value="" style="shape=tableRow;horizontal=0;startSize=0;swimlaneHead=0;swimlaneBody=0;top=0;left=0;bottom=0;right=0;collapsible=0;dropTarget=0;fillColor=none;points=[[0,0.5],[1,0.5]];portConstraint=eastwest;" parent="e3zNjsiBfACALDZ_TH6k-3" vertex="1">
          <mxGeometry y="450" width="360" height="30" as="geometry" />
        </mxCell>
        <mxCell id="e3zNjsiBfACALDZ_TH6k-72" value="Valid&lt;br&gt;15" style="shape=partialRectangle;html=1;whiteSpace=wrap;connectable=0;fillColor=none;top=0;left=0;bottom=0;right=0;overflow=hidden;" parent="e3zNjsiBfACALDZ_TH6k-71" vertex="1">
          <mxGeometry width="50" height="30" as="geometry">
            <mxRectangle width="50" height="30" as="alternateBounds" />
          </mxGeometry>
        </mxCell>
        <mxCell id="e3zNjsiBfACALDZ_TH6k-73" value="Tag | Byte Offset" style="shape=partialRectangle;html=1;whiteSpace=wrap;connectable=0;fillColor=none;top=0;left=0;bottom=0;right=0;overflow=hidden;" parent="e3zNjsiBfACALDZ_TH6k-71" vertex="1">
          <mxGeometry x="50" width="170" height="30" as="geometry">
            <mxRectangle width="170" height="30" as="alternateBounds" />
          </mxGeometry>
        </mxCell>
        <mxCell id="e3zNjsiBfACALDZ_TH6k-74" value="&lt;span&gt;4-Byte Word&lt;/span&gt;" style="shape=partialRectangle;html=1;whiteSpace=wrap;connectable=0;fillColor=none;top=0;left=0;bottom=0;right=0;overflow=hidden;" parent="e3zNjsiBfACALDZ_TH6k-71" vertex="1">
          <mxGeometry x="220" width="140" height="30" as="geometry">
            <mxRectangle width="140" height="30" as="alternateBounds" />
          </mxGeometry>
        </mxCell>
        <mxCell id="e3zNjsiBfACALDZ_TH6k-300" style="edgeStyle=orthogonalEdgeStyle;rounded=0;orthogonalLoop=1;jettySize=auto;html=1;exitX=0.25;exitY=0;exitDx=0;exitDy=0;entryX=0;entryY=0.5;entryDx=0;entryDy=0;" parent="1" source="e3zNjsiBfACALDZ_TH6k-298" target="e3zNjsiBfACALDZ_TH6k-140" edge="1">
          <mxGeometry relative="1" as="geometry">
            <mxPoint x="360" y="170" as="targetPoint" />
            <Array as="points">
              <mxPoint x="260" y="335" />
              <mxPoint x="260" y="165" />
            </Array>
          </mxGeometry>
        </mxCell>
        <mxCell id="e3zNjsiBfACALDZ_TH6k-310" style="edgeStyle=orthogonalEdgeStyle;rounded=0;orthogonalLoop=1;jettySize=auto;html=1;exitX=0.75;exitY=0;exitDx=0;exitDy=0;entryX=0;entryY=0.5;entryDx=0;entryDy=0;" parent="1" source="e3zNjsiBfACALDZ_TH6k-298" target="e3zNjsiBfACALDZ_TH6k-71" edge="1">
          <mxGeometry relative="1" as="geometry">
            <Array as="points">
              <mxPoint x="270" y="395" />
              <mxPoint x="270" y="615" />
            </Array>
          </mxGeometry>
        </mxCell>
        <mxCell id="e3zNjsiBfACALDZ_TH6k-298" value="1:16&lt;br&gt;MUX" style="shape=trapezoid;perimeter=trapezoidPerimeter;whiteSpace=wrap;html=1;fixedSize=1;fillColor=none;rotation=90;" parent="1" vertex="1">
          <mxGeometry x="115" y="355" width="130" height="30" as="geometry" />
        </mxCell>
        <mxCell id="e3zNjsiBfACALDZ_TH6k-301" style="edgeStyle=orthogonalEdgeStyle;rounded=0;orthogonalLoop=1;jettySize=auto;html=1;exitX=0.39;exitY=-0.02;exitDx=0;exitDy=0;exitPerimeter=0;entryX=0;entryY=0.5;entryDx=0;entryDy=0;" parent="1" source="e3zNjsiBfACALDZ_TH6k-298" target="e3zNjsiBfACALDZ_TH6k-8" edge="1">
          <mxGeometry relative="1" as="geometry">
            <mxPoint x="250" y="350" as="sourcePoint" />
            <mxPoint x="430" y="180" as="targetPoint" />
            <Array as="points">
              <mxPoint x="196" y="340" />
              <mxPoint x="270" y="340" />
              <mxPoint x="270" y="195" />
            </Array>
          </mxGeometry>
        </mxCell>
        <mxCell id="e3zNjsiBfACALDZ_TH6k-302" value="" style="endArrow=classic;html=1;rounded=0;exitX=0.392;exitY=-0.041;exitDx=0;exitDy=0;exitPerimeter=0;entryX=0;entryY=0.5;entryDx=0;entryDy=0;edgeStyle=orthogonalEdgeStyle;" parent="1" source="e3zNjsiBfACALDZ_TH6k-298" target="e3zNjsiBfACALDZ_TH6k-12" edge="1">
          <mxGeometry width="50" height="50" relative="1" as="geometry">
            <mxPoint x="290" y="390" as="sourcePoint" />
            <mxPoint x="340" y="340" as="targetPoint" />
            <Array as="points">
              <mxPoint x="280" y="352" />
              <mxPoint x="280" y="225" />
            </Array>
          </mxGeometry>
        </mxCell>
        <mxCell id="e3zNjsiBfACALDZ_TH6k-304" value="" style="shape=image;html=1;verticalAlign=top;verticalLabelPosition=bottom;labelBackgroundColor=#ffffff;imageAspect=0;aspect=fixed;image=https://cdn1.iconfinder.com/data/icons/bootstrap-vol-2/16/dot-128.png;fillColor=none;" parent="1" vertex="1">
          <mxGeometry x="310" y="250" width="80" height="80" as="geometry" />
        </mxCell>
        <mxCell id="e3zNjsiBfACALDZ_TH6k-305" value="" style="shape=image;html=1;verticalAlign=top;verticalLabelPosition=bottom;labelBackgroundColor=#ffffff;imageAspect=0;aspect=fixed;image=https://cdn1.iconfinder.com/data/icons/bootstrap-vol-2/16/dot-128.png;fillColor=none;" parent="1" vertex="1">
          <mxGeometry x="312" y="322" width="78" height="78" as="geometry" />
        </mxCell>
        <mxCell id="e3zNjsiBfACALDZ_TH6k-308" value="" style="shape=image;html=1;verticalAlign=top;verticalLabelPosition=bottom;labelBackgroundColor=#ffffff;imageAspect=0;aspect=fixed;image=https://cdn1.iconfinder.com/data/icons/bootstrap-vol-2/16/dot-128.png;fillColor=none;" parent="1" vertex="1">
          <mxGeometry x="312" y="400" width="78" height="78" as="geometry" />
        </mxCell>
        <mxCell id="e3zNjsiBfACALDZ_TH6k-309" value="" style="shape=image;html=1;verticalAlign=top;verticalLabelPosition=bottom;labelBackgroundColor=#ffffff;imageAspect=0;aspect=fixed;image=https://cdn1.iconfinder.com/data/icons/bootstrap-vol-2/16/dot-128.png;fillColor=none;" parent="1" vertex="1">
          <mxGeometry x="312" y="482" width="78" height="78" as="geometry" />
        </mxCell>
        <mxCell id="e3zNjsiBfACALDZ_TH6k-311" value="" style="endArrow=classic;html=1;rounded=0;exitX=0.675;exitY=0.001;exitDx=0;exitDy=0;exitPerimeter=0;entryX=0;entryY=0.5;entryDx=0;entryDy=0;edgeStyle=orthogonalEdgeStyle;" parent="1" source="e3zNjsiBfACALDZ_TH6k-298" target="e3zNjsiBfACALDZ_TH6k-63" edge="1">
          <mxGeometry width="50" height="50" relative="1" as="geometry">
            <mxPoint x="320" y="430" as="sourcePoint" />
            <mxPoint x="370" y="380" as="targetPoint" />
            <Array as="points">
              <mxPoint x="290" y="386" />
              <mxPoint x="290" y="585" />
            </Array>
          </mxGeometry>
        </mxCell>
        <mxCell id="e3zNjsiBfACALDZ_TH6k-312" value="" style="endArrow=classic;html=1;rounded=0;entryX=0;entryY=0.5;entryDx=0;entryDy=0;" parent="1" target="e3zNjsiBfACALDZ_TH6k-298" edge="1">
          <mxGeometry width="50" height="50" relative="1" as="geometry">
            <mxPoint x="180" y="210" as="sourcePoint" />
            <mxPoint x="200" y="270" as="targetPoint" />
          </mxGeometry>
        </mxCell>
        <mxCell id="e3zNjsiBfACALDZ_TH6k-313" value="index" style="edgeLabel;html=1;align=center;verticalAlign=middle;resizable=0;points=[];" parent="e3zNjsiBfACALDZ_TH6k-312" vertex="1" connectable="0">
          <mxGeometry x="-0.4993" relative="1" as="geometry">
            <mxPoint y="23" as="offset" />
          </mxGeometry>
        </mxCell>
        <mxCell id="e3zNjsiBfACALDZ_TH6k-314" value="dcif.imemaddr[5:2]" style="edgeLabel;html=1;align=center;verticalAlign=middle;resizable=0;points=[];" parent="e3zNjsiBfACALDZ_TH6k-312" vertex="1" connectable="0">
          <mxGeometry x="-0.8005" relative="1" as="geometry">
            <mxPoint y="-20" as="offset" />
          </mxGeometry>
        </mxCell>
        <mxCell id="e3zNjsiBfACALDZ_TH6k-315" value="" style="endArrow=classic;html=1;rounded=0;entryX=0.5;entryY=1;entryDx=0;entryDy=0;" parent="1" target="e3zNjsiBfACALDZ_TH6k-298" edge="1">
          <mxGeometry width="50" height="50" relative="1" as="geometry">
            <mxPoint x="50" y="370" as="sourcePoint" />
            <mxPoint x="100" y="330" as="targetPoint" />
          </mxGeometry>
        </mxCell>
        <mxCell id="e3zNjsiBfACALDZ_TH6k-316" value="address tag" style="edgeLabel;html=1;align=center;verticalAlign=middle;resizable=0;points=[];" parent="e3zNjsiBfACALDZ_TH6k-315" vertex="1" connectable="0">
          <mxGeometry x="0.3755" y="-2" relative="1" as="geometry">
            <mxPoint x="-39" as="offset" />
          </mxGeometry>
        </mxCell>
        <mxCell id="e3zNjsiBfACALDZ_TH6k-317" value="dcif.imemaddr[31:6]" style="edgeLabel;html=1;align=center;verticalAlign=middle;resizable=0;points=[];" parent="e3zNjsiBfACALDZ_TH6k-315" vertex="1" connectable="0">
          <mxGeometry x="-0.8577" relative="1" as="geometry">
            <mxPoint x="-8" y="-15" as="offset" />
          </mxGeometry>
        </mxCell>
        <mxCell id="e3zNjsiBfACALDZ_TH6k-318" value="" style="endArrow=classic;html=1;rounded=0;entryX=0.283;entryY=-0.018;entryDx=0;entryDy=0;entryPerimeter=0;" parent="1" target="e3zNjsiBfACALDZ_TH6k-140" edge="1">
          <mxGeometry width="50" height="50" relative="1" as="geometry">
            <mxPoint x="490" y="30" as="sourcePoint" />
            <mxPoint x="510" y="100" as="targetPoint" />
          </mxGeometry>
        </mxCell>
        <mxCell id="e3zNjsiBfACALDZ_TH6k-319" value="dcif.imemaddr[5:2]" style="edgeLabel;html=1;align=center;verticalAlign=middle;resizable=0;points=[];" parent="e3zNjsiBfACALDZ_TH6k-318" vertex="1" connectable="0">
          <mxGeometry x="-0.7537" relative="1" as="geometry">
            <mxPoint y="-25" as="offset" />
          </mxGeometry>
        </mxCell>
        <mxCell id="e3zNjsiBfACALDZ_TH6k-320" value="index" style="edgeLabel;html=1;align=center;verticalAlign=middle;resizable=0;points=[];" parent="e3zNjsiBfACALDZ_TH6k-318" vertex="1" connectable="0">
          <mxGeometry x="0.2384" y="-2" relative="1" as="geometry">
            <mxPoint as="offset" />
          </mxGeometry>
        </mxCell>
        <mxCell id="e3zNjsiBfACALDZ_TH6k-321" value="" style="endArrow=classic;html=1;rounded=0;exitX=0.374;exitY=1.039;exitDx=0;exitDy=0;exitPerimeter=0;" parent="1" edge="1">
          <mxGeometry width="50" height="50" relative="1" as="geometry">
            <mxPoint x="569.4699999999999" y="630.0000000000001" as="sourcePoint" />
            <mxPoint x="570" y="700" as="targetPoint" />
          </mxGeometry>
        </mxCell>
        <mxCell id="e3zNjsiBfACALDZ_TH6k-322" value="Hashtable[index].tag" style="edgeLabel;html=1;align=center;verticalAlign=middle;resizable=0;points=[];" parent="e3zNjsiBfACALDZ_TH6k-321" vertex="1" connectable="0">
          <mxGeometry x="-0.3824" y="1" relative="1" as="geometry">
            <mxPoint x="-1" y="8" as="offset" />
          </mxGeometry>
        </mxCell>
        <mxCell id="e3zNjsiBfACALDZ_TH6k-323" value="" style="endArrow=classic;html=1;rounded=0;exitX=0.374;exitY=1.039;exitDx=0;exitDy=0;exitPerimeter=0;" parent="1" edge="1">
          <mxGeometry width="50" height="50" relative="1" as="geometry">
            <mxPoint x="409.9999999999998" y="630" as="sourcePoint" />
            <mxPoint x="410.53" y="700" as="targetPoint" />
          </mxGeometry>
        </mxCell>
        <mxCell id="e3zNjsiBfACALDZ_TH6k-324" value="Hashtable[index].valid" style="edgeLabel;html=1;align=center;verticalAlign=middle;resizable=0;points=[];" parent="e3zNjsiBfACALDZ_TH6k-323" vertex="1" connectable="0">
          <mxGeometry x="-0.3824" y="1" relative="1" as="geometry">
            <mxPoint x="-1" y="8" as="offset" />
          </mxGeometry>
        </mxCell>
        <mxCell id="e3zNjsiBfACALDZ_TH6k-329" style="edgeStyle=orthogonalEdgeStyle;rounded=0;orthogonalLoop=1;jettySize=auto;html=1;exitX=1;exitY=0.5;exitDx=0;exitDy=0;fontFamily=Helvetica;" parent="1" source="e3zNjsiBfACALDZ_TH6k-325" edge="1">
          <mxGeometry relative="1" as="geometry">
            <mxPoint x="770" y="735" as="targetPoint" />
          </mxGeometry>
        </mxCell>
        <mxCell id="e3zNjsiBfACALDZ_TH6k-330" value="imemload" style="edgeLabel;html=1;align=center;verticalAlign=middle;resizable=0;points=[];fontFamily=Helvetica;" parent="e3zNjsiBfACALDZ_TH6k-329" vertex="1" connectable="0">
          <mxGeometry x="0.2217" y="-1" relative="1" as="geometry">
            <mxPoint x="-13" y="-1" as="offset" />
          </mxGeometry>
        </mxCell>
        <mxCell id="e3zNjsiBfACALDZ_TH6k-333" style="edgeStyle=orthogonalEdgeStyle;rounded=0;orthogonalLoop=1;jettySize=auto;html=1;exitX=1;exitY=0.25;exitDx=0;exitDy=0;fontFamily=Helvetica;" parent="1" source="e3zNjsiBfACALDZ_TH6k-325" edge="1">
          <mxGeometry relative="1" as="geometry">
            <mxPoint x="770" y="718" as="targetPoint" />
          </mxGeometry>
        </mxCell>
        <mxCell id="e3zNjsiBfACALDZ_TH6k-334" value="ihit" style="edgeLabel;html=1;align=center;verticalAlign=middle;resizable=0;points=[];fontFamily=Helvetica;" parent="e3zNjsiBfACALDZ_TH6k-333" vertex="1" connectable="0">
          <mxGeometry x="0.3258" y="-1" relative="1" as="geometry">
            <mxPoint as="offset" />
          </mxGeometry>
        </mxCell>
        <mxCell id="RZhs_lfHjZ0U4zvLsND--17" style="edgeStyle=orthogonalEdgeStyle;rounded=0;orthogonalLoop=1;jettySize=auto;html=1;exitX=1;exitY=0.75;exitDx=0;exitDy=0;startArrow=none;startFill=0;" edge="1" parent="1" source="e3zNjsiBfACALDZ_TH6k-325">
          <mxGeometry relative="1" as="geometry">
            <mxPoint x="780" y="753" as="targetPoint" />
          </mxGeometry>
        </mxCell>
        <mxCell id="RZhs_lfHjZ0U4zvLsND--18" value="iREN" style="edgeLabel;html=1;align=center;verticalAlign=middle;resizable=0;points=[];" vertex="1" connectable="0" parent="RZhs_lfHjZ0U4zvLsND--17">
          <mxGeometry x="-0.2133" y="-2" relative="1" as="geometry">
            <mxPoint as="offset" />
          </mxGeometry>
        </mxCell>
        <mxCell id="e3zNjsiBfACALDZ_TH6k-325" value="&lt;div style=&quot;text-align: left&quot;&gt;Output Logic&lt;/div&gt;" style="rounded=1;whiteSpace=wrap;html=1;fillColor=none;arcSize=8;" parent="1" vertex="1">
          <mxGeometry x="370" y="700" width="330" height="70" as="geometry" />
        </mxCell>
        <mxCell id="e3zNjsiBfACALDZ_TH6k-326" value="&lt;div style=&quot;text-align: left&quot;&gt;&lt;span&gt;Output logic:&lt;/span&gt;&lt;/div&gt;&lt;div style=&quot;text-align: left&quot;&gt;&lt;span&gt;case(state)&lt;/span&gt;&lt;/div&gt;&lt;div style=&quot;text-align: left&quot;&gt;&lt;span&gt;HIT:&lt;/span&gt;&lt;/div&gt;&lt;div style=&quot;text-align: left&quot;&gt;&lt;span&gt;cif.iREN = 0&lt;/span&gt;&lt;/div&gt;&lt;div style=&quot;text-align: left&quot;&gt;&lt;span&gt;cif.iaddr = 0&lt;/span&gt;&lt;/div&gt;&lt;div style=&quot;text-align: left&quot;&gt;dcif.ihit = 0&lt;/div&gt;&lt;div style=&quot;text-align: left&quot;&gt;dcif.imemload = &#39;0&lt;/div&gt;&lt;div style=&quot;text-align: left&quot;&gt;&lt;span&gt;if (!halt &amp;amp;&amp;amp; imemREN &amp;amp;&amp;amp; !dmemREN &amp;amp;&amp;amp; !dmemWEN)&lt;/span&gt;&lt;/div&gt;&lt;div style=&quot;text-align: left&quot;&gt;&lt;span&gt;&lt;span&gt;	&lt;/span&gt;&lt;span style=&quot;white-space: pre&quot;&gt;	&lt;/span&gt;if(address&amp;nbsp;&lt;/span&gt;&lt;span style=&quot;background-color: rgb(255 , 255 , 255) ; color: rgb(36 , 41 , 47)&quot;&gt;tag&amp;nbsp;&lt;/span&gt;&lt;span class=&quot;pl-k&quot; style=&quot;background-color: rgb(255 , 255 , 255) ; box-sizing: border-box&quot;&gt;==&lt;/span&gt;&lt;span style=&quot;background-color: rgb(255 , 255 , 255) ; color: rgb(36 , 41 , 47)&quot;&gt;&amp;nbsp;Hashtable[index].tag)&amp;nbsp;&lt;/span&gt;&lt;span class=&quot;pl-k&quot; style=&quot;background-color: rgb(255 , 255 , 255) ; box-sizing: border-box&quot;&gt;&amp;amp;&amp;amp;&lt;/span&gt;&lt;span style=&quot;background-color: rgb(255 , 255 , 255)&quot;&gt;&lt;font color=&quot;#24292f&quot;&gt;&amp;nbsp;&lt;/font&gt;&lt;/span&gt;&lt;span style=&quot;color: rgb(36 , 41 , 47) ; background-color: rgb(255 , 255 , 255)&quot;&gt;Hashtable&lt;/span&gt;&lt;span style=&quot;background-color: rgb(255 , 255 , 255)&quot;&gt;&lt;font color=&quot;#24292f&quot;&gt;[index].valid)&lt;/font&gt;&lt;/span&gt;&lt;/div&gt;&lt;div style=&quot;text-align: left&quot;&gt;&lt;span style=&quot;background-color: rgb(255 , 255 , 255)&quot;&gt;&lt;font color=&quot;#24292f&quot;&gt;&lt;span style=&quot;white-space: pre&quot;&gt;	&lt;/span&gt;&lt;span style=&quot;white-space: pre&quot;&gt;	&lt;/span&gt;dcif.imemload = Hashtable[index].word&lt;/font&gt;&lt;/span&gt;&lt;/div&gt;&lt;div style=&quot;text-align: left&quot;&gt;&lt;span style=&quot;background-color: rgb(255 , 255 , 255)&quot;&gt;&lt;font color=&quot;#24292f&quot;&gt;&lt;span style=&quot;white-space: pre&quot;&gt;	&lt;/span&gt;&lt;span style=&quot;white-space: pre&quot;&gt;	&lt;/span&gt;dcif.ihit = 1&lt;br&gt;&lt;/font&gt;&lt;/span&gt;&lt;/div&gt;&lt;div style=&quot;text-align: left&quot;&gt;&lt;br&gt;&lt;/div&gt;&lt;div style=&quot;text-align: left&quot;&gt;&lt;font color=&quot;#24292f&quot;&gt;&lt;span style=&quot;background-color: rgb(255 , 255 , 255)&quot;&gt;MISS:&lt;/span&gt;&lt;/font&gt;&lt;/div&gt;&lt;div style=&quot;text-align: left&quot;&gt;&lt;font color=&quot;#24292f&quot;&gt;&lt;span style=&quot;background-color: rgb(255 , 255 , 255)&quot;&gt;cif.iREN = dcif.imemREN&lt;/span&gt;&lt;/font&gt;&lt;/div&gt;&lt;div style=&quot;text-align: left&quot;&gt;&lt;font color=&quot;#24292f&quot;&gt;&lt;span style=&quot;background-color: rgb(255 , 255 , 255)&quot;&gt;cif.iaddr = dcif.imemaddr&lt;/span&gt;&lt;/font&gt;&lt;/div&gt;&lt;div style=&quot;text-align: left&quot;&gt;&lt;font color=&quot;#24292f&quot;&gt;&lt;span style=&quot;background-color: rgb(255 , 255 , 255)&quot;&gt;dcif.ihit = ~cif.iwait&lt;/span&gt;&lt;/font&gt;&lt;/div&gt;&lt;div style=&quot;text-align: left&quot;&gt;&lt;font color=&quot;#24292f&quot;&gt;&lt;span style=&quot;background-color: rgb(255 , 255 , 255)&quot;&gt;dcif.imemload = cif.imemload&lt;/span&gt;&lt;/font&gt;&lt;/div&gt;&lt;div style=&quot;text-align: left&quot;&gt;&lt;font color=&quot;#24292f&quot;&gt;&lt;span style=&quot;background-color: rgb(255 , 255 , 255)&quot;&gt;&lt;br&gt;&lt;/span&gt;&lt;/font&gt;&lt;/div&gt;&lt;div style=&quot;text-align: left&quot;&gt;&lt;span&gt;	&lt;/span&gt;&lt;/div&gt;" style="text;html=1;strokeColor=none;fillColor=none;align=center;verticalAlign=middle;whiteSpace=wrap;rounded=0;" parent="1" vertex="1">
          <mxGeometry x="30" y="790" width="340" height="240" as="geometry" />
        </mxCell>
        <mxCell id="e3zNjsiBfACALDZ_TH6k-327" value="" style="endArrow=classic;html=1;rounded=0;exitX=0.374;exitY=1.039;exitDx=0;exitDy=0;exitPerimeter=0;entryX=0.857;entryY=-0.009;entryDx=0;entryDy=0;entryPerimeter=0;edgeStyle=orthogonalEdgeStyle;" parent="1" target="e3zNjsiBfACALDZ_TH6k-325" edge="1">
          <mxGeometry width="50" height="50" relative="1" as="geometry">
            <mxPoint x="699.9999999999998" y="620" as="sourcePoint" />
            <mxPoint x="700.53" y="690" as="targetPoint" />
          </mxGeometry>
        </mxCell>
        <mxCell id="e3zNjsiBfACALDZ_TH6k-328" value="Hashtable[index].word" style="edgeLabel;html=1;align=center;verticalAlign=middle;resizable=0;points=[];" parent="e3zNjsiBfACALDZ_TH6k-327" vertex="1" connectable="0">
          <mxGeometry x="-0.3824" y="1" relative="1" as="geometry">
            <mxPoint x="-1" y="-9" as="offset" />
          </mxGeometry>
        </mxCell>
        <mxCell id="fc6FOaEUqUIrRpxD97HT-13" value="" style="endArrow=classic;html=1;rounded=0;fontFamily=Helvetica;entryX=0.091;entryY=1.022;entryDx=0;entryDy=0;entryPerimeter=0;" parent="1" target="e3zNjsiBfACALDZ_TH6k-325" edge="1">
          <mxGeometry width="50" height="50" relative="1" as="geometry">
            <mxPoint x="400" y="860" as="sourcePoint" />
            <mxPoint x="403" y="810" as="targetPoint" />
          </mxGeometry>
        </mxCell>
        <mxCell id="fc6FOaEUqUIrRpxD97HT-14" value="cif.iwait" style="edgeLabel;html=1;align=center;verticalAlign=middle;resizable=0;points=[];fontFamily=Helvetica;" parent="fc6FOaEUqUIrRpxD97HT-13" vertex="1" connectable="0">
          <mxGeometry x="-0.5562" y="1" relative="1" as="geometry">
            <mxPoint as="offset" />
          </mxGeometry>
        </mxCell>
        <mxCell id="fc6FOaEUqUIrRpxD97HT-15" value="" style="endArrow=classic;html=1;rounded=0;fontFamily=Helvetica;entryX=0.091;entryY=1.022;entryDx=0;entryDy=0;entryPerimeter=0;" parent="1" edge="1">
          <mxGeometry width="50" height="50" relative="1" as="geometry">
            <mxPoint x="450" y="858.46" as="sourcePoint" />
            <mxPoint x="450.03" y="770" as="targetPoint" />
          </mxGeometry>
        </mxCell>
        <mxCell id="fc6FOaEUqUIrRpxD97HT-16" value="dcif.imemREN" style="edgeLabel;html=1;align=center;verticalAlign=middle;resizable=0;points=[];fontFamily=Helvetica;" parent="fc6FOaEUqUIrRpxD97HT-15" vertex="1" connectable="0">
          <mxGeometry x="-0.5562" y="1" relative="1" as="geometry">
            <mxPoint y="-38" as="offset" />
          </mxGeometry>
        </mxCell>
        <mxCell id="fc6FOaEUqUIrRpxD97HT-17" value="" style="endArrow=classic;html=1;rounded=0;fontFamily=Helvetica;entryX=0.091;entryY=1.022;entryDx=0;entryDy=0;entryPerimeter=0;" parent="1" edge="1">
          <mxGeometry width="50" height="50" relative="1" as="geometry">
            <mxPoint x="530" y="830" as="sourcePoint" />
            <mxPoint x="530.03" y="770" as="targetPoint" />
          </mxGeometry>
        </mxCell>
        <mxCell id="fc6FOaEUqUIrRpxD97HT-18" value="dcif.dmemWEN" style="edgeLabel;html=1;align=center;verticalAlign=middle;resizable=0;points=[];fontFamily=Helvetica;" parent="fc6FOaEUqUIrRpxD97HT-17" vertex="1" connectable="0">
          <mxGeometry x="-0.5562" y="1" relative="1" as="geometry">
            <mxPoint x="-4" y="3" as="offset" />
          </mxGeometry>
        </mxCell>
        <mxCell id="fc6FOaEUqUIrRpxD97HT-19" value="" style="endArrow=classic;html=1;rounded=0;fontFamily=Helvetica;entryX=0.091;entryY=1.022;entryDx=0;entryDy=0;entryPerimeter=0;" parent="1" edge="1">
          <mxGeometry width="50" height="50" relative="1" as="geometry">
            <mxPoint x="620" y="820" as="sourcePoint" />
            <mxPoint x="620.03" y="770" as="targetPoint" />
          </mxGeometry>
        </mxCell>
        <mxCell id="fc6FOaEUqUIrRpxD97HT-20" value="dcif.dmemREN" style="edgeLabel;html=1;align=center;verticalAlign=middle;resizable=0;points=[];fontFamily=Helvetica;" parent="fc6FOaEUqUIrRpxD97HT-19" vertex="1" connectable="0">
          <mxGeometry x="-0.5562" y="1" relative="1" as="geometry">
            <mxPoint y="-19" as="offset" />
          </mxGeometry>
        </mxCell>
        <mxCell id="fc6FOaEUqUIrRpxD97HT-21" value="" style="endArrow=classic;html=1;rounded=0;fontFamily=Helvetica;entryX=0;entryY=0.5;entryDx=0;entryDy=0;" parent="1" target="e3zNjsiBfACALDZ_TH6k-325" edge="1">
          <mxGeometry width="50" height="50" relative="1" as="geometry">
            <mxPoint x="310" y="735" as="sourcePoint" />
            <mxPoint x="280" y="670" as="targetPoint" />
          </mxGeometry>
        </mxCell>
        <mxCell id="fc6FOaEUqUIrRpxD97HT-22" value="dcif.halt" style="edgeLabel;html=1;align=center;verticalAlign=middle;resizable=0;points=[];fontFamily=Helvetica;" parent="fc6FOaEUqUIrRpxD97HT-21" vertex="1" connectable="0">
          <mxGeometry x="-0.4333" y="2" relative="1" as="geometry">
            <mxPoint as="offset" />
          </mxGeometry>
        </mxCell>
        <mxCell id="fc6FOaEUqUIrRpxD97HT-23" value="" style="endArrow=classic;html=1;rounded=0;fontFamily=Helvetica;startArrow=oval;startFill=1;entryX=0;entryY=0.25;entryDx=0;entryDy=0;edgeStyle=orthogonalEdgeStyle;" parent="1" target="e3zNjsiBfACALDZ_TH6k-325" edge="1">
          <mxGeometry width="50" height="50" relative="1" as="geometry">
            <mxPoint x="140" y="370" as="sourcePoint" />
            <mxPoint x="200" y="560" as="targetPoint" />
            <Array as="points">
              <mxPoint x="140" y="718" />
            </Array>
          </mxGeometry>
        </mxCell>
        <mxCell id="RZhs_lfHjZ0U4zvLsND--1" style="edgeStyle=orthogonalEdgeStyle;rounded=0;orthogonalLoop=1;jettySize=auto;html=1;exitX=0;exitY=1;exitDx=0;exitDy=0;entryX=1;entryY=1;entryDx=0;entryDy=0;fontFamily=Helvetica;fontSize=14;startArrow=oval;startFill=1;" edge="1" parent="1" source="RZhs_lfHjZ0U4zvLsND--3" target="RZhs_lfHjZ0U4zvLsND--6">
          <mxGeometry relative="1" as="geometry" />
        </mxCell>
        <mxCell id="RZhs_lfHjZ0U4zvLsND--2" value="~cif.iwait" style="edgeLabel;html=1;align=center;verticalAlign=middle;resizable=0;points=[];fontSize=14;fontFamily=Helvetica;" vertex="1" connectable="0" parent="RZhs_lfHjZ0U4zvLsND--1">
          <mxGeometry x="-0.1146" y="-1" relative="1" as="geometry">
            <mxPoint x="-11" y="16" as="offset" />
          </mxGeometry>
        </mxCell>
        <mxCell id="RZhs_lfHjZ0U4zvLsND--3" value="&lt;font style=&quot;font-size: 18px&quot;&gt;Miss&lt;/font&gt;" style="ellipse;whiteSpace=wrap;html=1;aspect=fixed;fontFamily=Helvetica;fillColor=default;" vertex="1" parent="1">
          <mxGeometry x="1380" y="222" width="100" height="100" as="geometry" />
        </mxCell>
        <mxCell id="RZhs_lfHjZ0U4zvLsND--4" style="edgeStyle=orthogonalEdgeStyle;rounded=0;orthogonalLoop=1;jettySize=auto;html=1;exitX=1;exitY=0;exitDx=0;exitDy=0;entryX=0;entryY=0;entryDx=0;entryDy=0;fontFamily=Helvetica;fontSize=18;startArrow=oval;startFill=1;" edge="1" parent="1" source="RZhs_lfHjZ0U4zvLsND--6" target="RZhs_lfHjZ0U4zvLsND--3">
          <mxGeometry relative="1" as="geometry" />
        </mxCell>
        <mxCell id="RZhs_lfHjZ0U4zvLsND--5" value="&lt;font style=&quot;font-size: 14px&quot;&gt;tag != hash[index].tag&lt;br&gt;|| !hash[index].valid&lt;br&gt;&lt;/font&gt;" style="edgeLabel;html=1;align=center;verticalAlign=middle;resizable=0;points=[];fontSize=18;fontFamily=Helvetica;" vertex="1" connectable="0" parent="RZhs_lfHjZ0U4zvLsND--4">
          <mxGeometry x="-0.2393" y="1" relative="1" as="geometry">
            <mxPoint x="29" y="-26" as="offset" />
          </mxGeometry>
        </mxCell>
        <mxCell id="RZhs_lfHjZ0U4zvLsND--6" value="&lt;font style=&quot;font-size: 18px&quot;&gt;Hit&lt;/font&gt;" style="ellipse;whiteSpace=wrap;html=1;aspect=fixed;fontFamily=Helvetica;fillColor=default;" vertex="1" parent="1">
          <mxGeometry x="1030" y="222" width="100" height="100" as="geometry" />
        </mxCell>
        <mxCell id="RZhs_lfHjZ0U4zvLsND--11" style="edgeStyle=orthogonalEdgeStyle;rounded=0;orthogonalLoop=1;jettySize=auto;html=1;exitX=1;exitY=0.5;exitDx=0;exitDy=0;entryX=0;entryY=0.5;entryDx=0;entryDy=0;" edge="1" parent="1" source="RZhs_lfHjZ0U4zvLsND--7" target="RZhs_lfHjZ0U4zvLsND--10">
          <mxGeometry relative="1" as="geometry" />
        </mxCell>
        <mxCell id="RZhs_lfHjZ0U4zvLsND--14" value="state" style="edgeLabel;html=1;align=center;verticalAlign=middle;resizable=0;points=[];" vertex="1" connectable="0" parent="RZhs_lfHjZ0U4zvLsND--11">
          <mxGeometry x="-0.3091" relative="1" as="geometry">
            <mxPoint as="offset" />
          </mxGeometry>
        </mxCell>
        <mxCell id="RZhs_lfHjZ0U4zvLsND--7" value="State FF" style="rounded=0;whiteSpace=wrap;html=1;" vertex="1" parent="1">
          <mxGeometry x="940" y="520" width="100" height="100" as="geometry" />
        </mxCell>
        <mxCell id="RZhs_lfHjZ0U4zvLsND--8" value="" style="triangle;whiteSpace=wrap;html=1;" vertex="1" parent="1">
          <mxGeometry x="940" y="590" width="20" height="20" as="geometry" />
        </mxCell>
        <mxCell id="RZhs_lfHjZ0U4zvLsND--9" value="" style="ellipse;whiteSpace=wrap;html=1;aspect=fixed;" vertex="1" parent="1">
          <mxGeometry x="950" y="620" width="10" height="10" as="geometry" />
        </mxCell>
        <mxCell id="RZhs_lfHjZ0U4zvLsND--12" style="edgeStyle=orthogonalEdgeStyle;rounded=0;orthogonalLoop=1;jettySize=auto;html=1;exitX=0.5;exitY=1;exitDx=0;exitDy=0;entryX=0;entryY=0.5;entryDx=0;entryDy=0;" edge="1" parent="1" source="RZhs_lfHjZ0U4zvLsND--10" target="RZhs_lfHjZ0U4zvLsND--7">
          <mxGeometry relative="1" as="geometry">
            <Array as="points">
              <mxPoint x="1190" y="650" />
              <mxPoint x="920" y="650" />
              <mxPoint x="920" y="570" />
            </Array>
          </mxGeometry>
        </mxCell>
        <mxCell id="RZhs_lfHjZ0U4zvLsND--15" value="nextstate" style="edgeLabel;html=1;align=center;verticalAlign=middle;resizable=0;points=[];" vertex="1" connectable="0" parent="RZhs_lfHjZ0U4zvLsND--12">
          <mxGeometry x="-0.522" y="-1" relative="1" as="geometry">
            <mxPoint as="offset" />
          </mxGeometry>
        </mxCell>
        <mxCell id="RZhs_lfHjZ0U4zvLsND--10" value="Next State Logic" style="rounded=1;whiteSpace=wrap;html=1;" vertex="1" parent="1">
          <mxGeometry x="1150" y="530" width="260" height="80" as="geometry" />
        </mxCell>
        <mxCell id="RZhs_lfHjZ0U4zvLsND--13" value="" style="endArrow=classic;html=1;rounded=0;entryX=0.952;entryY=0;entryDx=0;entryDy=0;entryPerimeter=0;edgeStyle=orthogonalEdgeStyle;startArrow=oval;startFill=1;" edge="1" parent="1" target="e3zNjsiBfACALDZ_TH6k-325">
          <mxGeometry width="50" height="50" relative="1" as="geometry">
            <mxPoint x="1100" y="570" as="sourcePoint" />
            <mxPoint x="1000" y="770" as="targetPoint" />
            <Array as="points">
              <mxPoint x="1100" y="680" />
              <mxPoint x="684" y="680" />
            </Array>
          </mxGeometry>
        </mxCell>
        <mxCell id="RZhs_lfHjZ0U4zvLsND--16" value="Next State Logic:&lt;br&gt;&lt;div&gt;HIT:&lt;/div&gt;&lt;div&gt;if(!dcif.halt &amp;amp;&amp;amp; dcif.imemREN &amp;amp;&amp;amp; !dcif.dmemREN &amp;amp;&amp;amp; !dcif.dmemWEN)&lt;/div&gt;&lt;div&gt;&lt;span style=&quot;white-space: pre&quot;&gt;	&lt;/span&gt;if((tag != hashTable[index].tag) || !hashTable[index].valid)&amp;nbsp;&lt;/div&gt;&lt;div&gt;&lt;span style=&quot;white-space: pre&quot;&gt;	&lt;/span&gt;&lt;span style=&quot;white-space: pre&quot;&gt;	&lt;/span&gt;nextstate = MISS;&lt;/div&gt;&lt;div&gt;MISS:&lt;/div&gt;&lt;div&gt;&lt;span style=&quot;white-space: pre&quot;&gt;	&lt;/span&gt;if(ihit)&lt;/div&gt;&lt;div&gt;&lt;span style=&quot;white-space: pre&quot;&gt;	&lt;/span&gt;&lt;span style=&quot;white-space: pre&quot;&gt;	&lt;/span&gt;nextstate = HIT;&lt;/div&gt;" style="text;html=1;strokeColor=none;fillColor=none;align=left;verticalAlign=middle;whiteSpace=wrap;rounded=0;" vertex="1" parent="1">
          <mxGeometry x="930" y="750" width="450" height="110" as="geometry" />
        </mxCell>
        <mxCell id="RZhs_lfHjZ0U4zvLsND--20" style="edgeStyle=orthogonalEdgeStyle;rounded=0;orthogonalLoop=1;jettySize=auto;html=1;exitX=1;exitY=0.75;exitDx=0;exitDy=0;startArrow=none;startFill=0;" edge="1" parent="1">
          <mxGeometry relative="1" as="geometry">
            <mxPoint x="780" y="770.5" as="targetPoint" />
            <mxPoint x="700" y="770" as="sourcePoint" />
            <Array as="points">
              <mxPoint x="740" y="770.5" />
              <mxPoint x="780" y="770.5" />
            </Array>
          </mxGeometry>
        </mxCell>
        <mxCell id="RZhs_lfHjZ0U4zvLsND--21" value="iaddr" style="edgeLabel;html=1;align=center;verticalAlign=middle;resizable=0;points=[];" vertex="1" connectable="0" parent="RZhs_lfHjZ0U4zvLsND--20">
          <mxGeometry x="-0.2133" y="-2" relative="1" as="geometry">
            <mxPoint as="offset" />
          </mxGeometry>
        </mxCell>
        <mxCell id="RZhs_lfHjZ0U4zvLsND--22" value="" style="endArrow=classic;html=1;rounded=0;fontFamily=Helvetica;entryX=0;entryY=0.75;entryDx=0;entryDy=0;" edge="1" parent="1" target="e3zNjsiBfACALDZ_TH6k-325">
          <mxGeometry width="50" height="50" relative="1" as="geometry">
            <mxPoint x="280" y="753" as="sourcePoint" />
            <mxPoint x="340" y="750" as="targetPoint" />
          </mxGeometry>
        </mxCell>
        <mxCell id="RZhs_lfHjZ0U4zvLsND--23" value="dcif.imemaddr" style="edgeLabel;html=1;align=center;verticalAlign=middle;resizable=0;points=[];fontFamily=Helvetica;" vertex="1" connectable="0" parent="RZhs_lfHjZ0U4zvLsND--22">
          <mxGeometry x="-0.4333" y="2" relative="1" as="geometry">
            <mxPoint as="offset" />
          </mxGeometry>
        </mxCell>
        <mxCell id="RZhs_lfHjZ0U4zvLsND--24" value="" style="endArrow=classic;html=1;rounded=0;fontFamily=Helvetica;entryX=0.115;entryY=0.002;entryDx=0;entryDy=0;entryPerimeter=0;" edge="1" parent="1" target="RZhs_lfHjZ0U4zvLsND--10">
          <mxGeometry width="50" height="50" relative="1" as="geometry">
            <mxPoint x="1180" y="490" as="sourcePoint" />
            <mxPoint x="1170.0300000000002" y="440" as="targetPoint" />
          </mxGeometry>
        </mxCell>
        <mxCell id="RZhs_lfHjZ0U4zvLsND--25" value="dcif.dmemREN" style="edgeLabel;html=1;align=center;verticalAlign=middle;resizable=0;points=[];fontFamily=Helvetica;" vertex="1" connectable="0" parent="RZhs_lfHjZ0U4zvLsND--24">
          <mxGeometry x="-0.5562" y="1" relative="1" as="geometry">
            <mxPoint y="-19" as="offset" />
          </mxGeometry>
        </mxCell>
        <mxCell id="RZhs_lfHjZ0U4zvLsND--26" value="" style="endArrow=classic;html=1;rounded=0;fontFamily=Helvetica;entryX=0.25;entryY=0;entryDx=0;entryDy=0;" edge="1" parent="1">
          <mxGeometry width="50" height="50" relative="1" as="geometry">
            <mxPoint x="1260" y="490" as="sourcePoint" />
            <mxPoint x="1260" y="530" as="targetPoint" />
          </mxGeometry>
        </mxCell>
        <mxCell id="RZhs_lfHjZ0U4zvLsND--27" value="dcif.dmemWEN" style="edgeLabel;html=1;align=center;verticalAlign=middle;resizable=0;points=[];fontFamily=Helvetica;" vertex="1" connectable="0" parent="RZhs_lfHjZ0U4zvLsND--26">
          <mxGeometry x="-0.5562" y="1" relative="1" as="geometry">
            <mxPoint y="-19" as="offset" />
          </mxGeometry>
        </mxCell>
        <mxCell id="RZhs_lfHjZ0U4zvLsND--28" value="" style="endArrow=classic;html=1;rounded=0;fontFamily=Helvetica;entryX=0.25;entryY=0;entryDx=0;entryDy=0;" edge="1" parent="1">
          <mxGeometry width="50" height="50" relative="1" as="geometry">
            <mxPoint x="1350" y="490" as="sourcePoint" />
            <mxPoint x="1350" y="530" as="targetPoint" />
          </mxGeometry>
        </mxCell>
        <mxCell id="RZhs_lfHjZ0U4zvLsND--29" value="dcif.imemREN" style="edgeLabel;html=1;align=center;verticalAlign=middle;resizable=0;points=[];fontFamily=Helvetica;" vertex="1" connectable="0" parent="RZhs_lfHjZ0U4zvLsND--28">
          <mxGeometry x="-0.5562" y="1" relative="1" as="geometry">
            <mxPoint y="-19" as="offset" />
          </mxGeometry>
        </mxCell>
        <mxCell id="RZhs_lfHjZ0U4zvLsND--30" value="" style="endArrow=classic;html=1;rounded=0;fontFamily=Helvetica;entryX=1;entryY=0.5;entryDx=0;entryDy=0;" edge="1" parent="1" target="RZhs_lfHjZ0U4zvLsND--10">
          <mxGeometry width="50" height="50" relative="1" as="geometry">
            <mxPoint x="1470" y="570" as="sourcePoint" />
            <mxPoint x="1330" y="690" as="targetPoint" />
          </mxGeometry>
        </mxCell>
        <mxCell id="RZhs_lfHjZ0U4zvLsND--31" value="dcif.halt" style="edgeLabel;html=1;align=center;verticalAlign=middle;resizable=0;points=[];fontFamily=Helvetica;" vertex="1" connectable="0" parent="RZhs_lfHjZ0U4zvLsND--30">
          <mxGeometry x="-0.4333" y="2" relative="1" as="geometry">
            <mxPoint as="offset" />
          </mxGeometry>
        </mxCell>
        <mxCell id="RZhs_lfHjZ0U4zvLsND--32" value="" style="endArrow=classic;html=1;rounded=0;entryX=1;entryY=0.25;entryDx=0;entryDy=0;" edge="1" parent="1" target="RZhs_lfHjZ0U4zvLsND--10">
          <mxGeometry width="50" height="50" relative="1" as="geometry">
            <mxPoint x="1550" y="550" as="sourcePoint" />
            <mxPoint x="1510" y="520" as="targetPoint" />
          </mxGeometry>
        </mxCell>
        <mxCell id="RZhs_lfHjZ0U4zvLsND--33" value="Hashtable[index].tag" style="edgeLabel;html=1;align=center;verticalAlign=middle;resizable=0;points=[];" vertex="1" connectable="0" parent="RZhs_lfHjZ0U4zvLsND--32">
          <mxGeometry x="-0.3824" y="1" relative="1" as="geometry">
            <mxPoint x="33" y="-11" as="offset" />
          </mxGeometry>
        </mxCell>
        <mxCell id="RZhs_lfHjZ0U4zvLsND--34" value="" style="endArrow=classic;html=1;rounded=0;entryX=1;entryY=0.25;entryDx=0;entryDy=0;" edge="1" parent="1">
          <mxGeometry width="50" height="50" relative="1" as="geometry">
            <mxPoint x="1550" y="590" as="sourcePoint" />
            <mxPoint x="1410" y="590" as="targetPoint" />
          </mxGeometry>
        </mxCell>
        <mxCell id="RZhs_lfHjZ0U4zvLsND--35" value="Hashtable[index].valid" style="edgeLabel;html=1;align=center;verticalAlign=middle;resizable=0;points=[];" vertex="1" connectable="0" parent="RZhs_lfHjZ0U4zvLsND--34">
          <mxGeometry x="-0.3824" y="1" relative="1" as="geometry">
            <mxPoint x="33" y="-11" as="offset" />
          </mxGeometry>
        </mxCell>
      </root>
    </mxGraphModel>
  </diagram>
  <diagram id="UYspJJX5N8Spnp9jNyZP" name="dcache">
    <mxGraphModel dx="1298" dy="419" grid="1" gridSize="10" guides="1" tooltips="1" connect="1" arrows="1" fold="1" page="1" pageScale="1" pageWidth="850" pageHeight="1100" math="0" shadow="0">
      <root>
        <mxCell id="L6iec803-tzA5G3uRX5k-0" />
        <mxCell id="L6iec803-tzA5G3uRX5k-1" parent="L6iec803-tzA5G3uRX5k-0" />
        <mxCell id="tumG6ZHAliBYtRT1aIHx-0" value="" style="shape=table;html=1;whiteSpace=wrap;startSize=0;container=1;collapsible=0;childLayout=tableLayout;" parent="L6iec803-tzA5G3uRX5k-1" vertex="1">
          <mxGeometry x="60" y="140" width="290" height="240" as="geometry" />
        </mxCell>
        <mxCell id="tumG6ZHAliBYtRT1aIHx-1" value="" style="shape=tableRow;horizontal=0;startSize=0;swimlaneHead=0;swimlaneBody=0;top=0;left=0;bottom=0;right=0;collapsible=0;dropTarget=0;fillColor=none;points=[[0,0.5],[1,0.5]];portConstraint=eastwest;" parent="tumG6ZHAliBYtRT1aIHx-0" vertex="1">
          <mxGeometry width="290" height="30" as="geometry" />
        </mxCell>
        <mxCell id="tumG6ZHAliBYtRT1aIHx-2" value="Valid&lt;br&gt;0" style="shape=partialRectangle;html=1;whiteSpace=wrap;connectable=0;fillColor=none;top=0;left=0;bottom=0;right=0;overflow=hidden;" parent="tumG6ZHAliBYtRT1aIHx-1" vertex="1">
          <mxGeometry width="50" height="30" as="geometry">
            <mxRectangle width="50" height="30" as="alternateBounds" />
          </mxGeometry>
        </mxCell>
        <mxCell id="tumG6ZHAliBYtRT1aIHx-3" value="Tag | Byte Offset" style="shape=partialRectangle;html=1;whiteSpace=wrap;connectable=0;fillColor=none;top=0;left=0;bottom=0;right=0;overflow=hidden;" parent="tumG6ZHAliBYtRT1aIHx-1" vertex="1">
          <mxGeometry x="50" width="120" height="30" as="geometry">
            <mxRectangle width="120" height="30" as="alternateBounds" />
          </mxGeometry>
        </mxCell>
        <mxCell id="tumG6ZHAliBYtRT1aIHx-4" value="&lt;span&gt;4-Byte Word&lt;/span&gt;" style="shape=partialRectangle;html=1;whiteSpace=wrap;connectable=0;fillColor=none;top=0;left=0;bottom=0;right=0;overflow=hidden;" parent="tumG6ZHAliBYtRT1aIHx-1" vertex="1">
          <mxGeometry x="170" width="120" height="30" as="geometry">
            <mxRectangle width="120" height="30" as="alternateBounds" />
          </mxGeometry>
        </mxCell>
        <mxCell id="tumG6ZHAliBYtRT1aIHx-5" value="" style="shape=tableRow;horizontal=0;startSize=0;swimlaneHead=0;swimlaneBody=0;top=0;left=0;bottom=0;right=0;collapsible=0;dropTarget=0;fillColor=none;points=[[0,0.5],[1,0.5]];portConstraint=eastwest;" parent="tumG6ZHAliBYtRT1aIHx-0" vertex="1">
          <mxGeometry y="30" width="290" height="30" as="geometry" />
        </mxCell>
        <mxCell id="tumG6ZHAliBYtRT1aIHx-6" value="Valid&lt;br&gt;1" style="shape=partialRectangle;html=1;whiteSpace=wrap;connectable=0;fillColor=none;top=0;left=0;bottom=0;right=0;overflow=hidden;" parent="tumG6ZHAliBYtRT1aIHx-5" vertex="1">
          <mxGeometry width="50" height="30" as="geometry">
            <mxRectangle width="50" height="30" as="alternateBounds" />
          </mxGeometry>
        </mxCell>
        <mxCell id="tumG6ZHAliBYtRT1aIHx-7" value="Tag | Byte Offset" style="shape=partialRectangle;html=1;whiteSpace=wrap;connectable=0;fillColor=none;top=0;left=0;bottom=0;right=0;overflow=hidden;" parent="tumG6ZHAliBYtRT1aIHx-5" vertex="1">
          <mxGeometry x="50" width="120" height="30" as="geometry">
            <mxRectangle width="120" height="30" as="alternateBounds" />
          </mxGeometry>
        </mxCell>
        <mxCell id="tumG6ZHAliBYtRT1aIHx-8" value="&lt;span&gt;4-Byte Word&lt;/span&gt;" style="shape=partialRectangle;html=1;whiteSpace=wrap;connectable=0;fillColor=none;top=0;left=0;bottom=0;right=0;overflow=hidden;" parent="tumG6ZHAliBYtRT1aIHx-5" vertex="1">
          <mxGeometry x="170" width="120" height="30" as="geometry">
            <mxRectangle width="120" height="30" as="alternateBounds" />
          </mxGeometry>
        </mxCell>
        <mxCell id="tumG6ZHAliBYtRT1aIHx-9" value="" style="shape=tableRow;horizontal=0;startSize=0;swimlaneHead=0;swimlaneBody=0;top=0;left=0;bottom=0;right=0;collapsible=0;dropTarget=0;fillColor=none;points=[[0,0.5],[1,0.5]];portConstraint=eastwest;" parent="tumG6ZHAliBYtRT1aIHx-0" vertex="1">
          <mxGeometry y="60" width="290" height="30" as="geometry" />
        </mxCell>
        <mxCell id="tumG6ZHAliBYtRT1aIHx-10" value="Valid&lt;br&gt;2" style="shape=partialRectangle;html=1;whiteSpace=wrap;connectable=0;fillColor=none;top=0;left=0;bottom=0;right=0;overflow=hidden;" parent="tumG6ZHAliBYtRT1aIHx-9" vertex="1">
          <mxGeometry width="50" height="30" as="geometry">
            <mxRectangle width="50" height="30" as="alternateBounds" />
          </mxGeometry>
        </mxCell>
        <mxCell id="tumG6ZHAliBYtRT1aIHx-11" value="Tag | Byte Offset" style="shape=partialRectangle;html=1;whiteSpace=wrap;connectable=0;fillColor=none;top=0;left=0;bottom=0;right=0;overflow=hidden;" parent="tumG6ZHAliBYtRT1aIHx-9" vertex="1">
          <mxGeometry x="50" width="120" height="30" as="geometry">
            <mxRectangle width="120" height="30" as="alternateBounds" />
          </mxGeometry>
        </mxCell>
        <mxCell id="tumG6ZHAliBYtRT1aIHx-12" value="&lt;span&gt;4-Byte Word&lt;/span&gt;" style="shape=partialRectangle;html=1;whiteSpace=wrap;connectable=0;fillColor=none;top=0;left=0;bottom=0;right=0;overflow=hidden;pointerEvents=1;" parent="tumG6ZHAliBYtRT1aIHx-9" vertex="1">
          <mxGeometry x="170" width="120" height="30" as="geometry">
            <mxRectangle width="120" height="30" as="alternateBounds" />
          </mxGeometry>
        </mxCell>
        <mxCell id="tumG6ZHAliBYtRT1aIHx-13" value="" style="shape=tableRow;horizontal=0;startSize=0;swimlaneHead=0;swimlaneBody=0;top=0;left=0;bottom=0;right=0;collapsible=0;dropTarget=0;fillColor=none;points=[[0,0.5],[1,0.5]];portConstraint=eastwest;" parent="tumG6ZHAliBYtRT1aIHx-0" vertex="1">
          <mxGeometry y="90" width="290" height="30" as="geometry" />
        </mxCell>
        <mxCell id="tumG6ZHAliBYtRT1aIHx-14" value="Valid&lt;br&gt;3" style="shape=partialRectangle;html=1;whiteSpace=wrap;connectable=0;fillColor=none;top=0;left=0;bottom=0;right=0;overflow=hidden;" parent="tumG6ZHAliBYtRT1aIHx-13" vertex="1">
          <mxGeometry width="50" height="30" as="geometry">
            <mxRectangle width="50" height="30" as="alternateBounds" />
          </mxGeometry>
        </mxCell>
        <mxCell id="tumG6ZHAliBYtRT1aIHx-15" value="Tag | Byte Offset" style="shape=partialRectangle;html=1;whiteSpace=wrap;connectable=0;fillColor=none;top=0;left=0;bottom=0;right=0;overflow=hidden;" parent="tumG6ZHAliBYtRT1aIHx-13" vertex="1">
          <mxGeometry x="50" width="120" height="30" as="geometry">
            <mxRectangle width="120" height="30" as="alternateBounds" />
          </mxGeometry>
        </mxCell>
        <mxCell id="tumG6ZHAliBYtRT1aIHx-16" value="&lt;span&gt;4-Byte Word&lt;/span&gt;" style="shape=partialRectangle;html=1;whiteSpace=wrap;connectable=0;fillColor=none;top=0;left=0;bottom=0;right=0;overflow=hidden;pointerEvents=1;" parent="tumG6ZHAliBYtRT1aIHx-13" vertex="1">
          <mxGeometry x="170" width="120" height="30" as="geometry">
            <mxRectangle width="120" height="30" as="alternateBounds" />
          </mxGeometry>
        </mxCell>
        <mxCell id="tumG6ZHAliBYtRT1aIHx-17" value="" style="shape=tableRow;horizontal=0;startSize=0;swimlaneHead=0;swimlaneBody=0;top=0;left=0;bottom=0;right=0;collapsible=0;dropTarget=0;fillColor=none;points=[[0,0.5],[1,0.5]];portConstraint=eastwest;" parent="tumG6ZHAliBYtRT1aIHx-0" vertex="1">
          <mxGeometry y="120" width="290" height="30" as="geometry" />
        </mxCell>
        <mxCell id="tumG6ZHAliBYtRT1aIHx-18" value="Valid&lt;br&gt;4" style="shape=partialRectangle;html=1;whiteSpace=wrap;connectable=0;fillColor=none;top=0;left=0;bottom=0;right=0;overflow=hidden;" parent="tumG6ZHAliBYtRT1aIHx-17" vertex="1">
          <mxGeometry width="50" height="30" as="geometry">
            <mxRectangle width="50" height="30" as="alternateBounds" />
          </mxGeometry>
        </mxCell>
        <mxCell id="tumG6ZHAliBYtRT1aIHx-19" value="Tag | Byte Offset" style="shape=partialRectangle;html=1;whiteSpace=wrap;connectable=0;fillColor=none;top=0;left=0;bottom=0;right=0;overflow=hidden;" parent="tumG6ZHAliBYtRT1aIHx-17" vertex="1">
          <mxGeometry x="50" width="120" height="30" as="geometry">
            <mxRectangle width="120" height="30" as="alternateBounds" />
          </mxGeometry>
        </mxCell>
        <mxCell id="tumG6ZHAliBYtRT1aIHx-20" value="&lt;span&gt;4-Byte Word&lt;/span&gt;" style="shape=partialRectangle;html=1;whiteSpace=wrap;connectable=0;fillColor=none;top=0;left=0;bottom=0;right=0;overflow=hidden;pointerEvents=1;" parent="tumG6ZHAliBYtRT1aIHx-17" vertex="1">
          <mxGeometry x="170" width="120" height="30" as="geometry">
            <mxRectangle width="120" height="30" as="alternateBounds" />
          </mxGeometry>
        </mxCell>
        <mxCell id="tumG6ZHAliBYtRT1aIHx-21" value="" style="shape=tableRow;horizontal=0;startSize=0;swimlaneHead=0;swimlaneBody=0;top=0;left=0;bottom=0;right=0;collapsible=0;dropTarget=0;fillColor=none;points=[[0,0.5],[1,0.5]];portConstraint=eastwest;" parent="tumG6ZHAliBYtRT1aIHx-0" vertex="1">
          <mxGeometry y="150" width="290" height="30" as="geometry" />
        </mxCell>
        <mxCell id="tumG6ZHAliBYtRT1aIHx-22" value="Valid&lt;br&gt;5" style="shape=partialRectangle;html=1;whiteSpace=wrap;connectable=0;fillColor=none;top=0;left=0;bottom=0;right=0;overflow=hidden;" parent="tumG6ZHAliBYtRT1aIHx-21" vertex="1">
          <mxGeometry width="50" height="30" as="geometry">
            <mxRectangle width="50" height="30" as="alternateBounds" />
          </mxGeometry>
        </mxCell>
        <mxCell id="tumG6ZHAliBYtRT1aIHx-23" value="Tag | Byte Offset" style="shape=partialRectangle;html=1;whiteSpace=wrap;connectable=0;fillColor=none;top=0;left=0;bottom=0;right=0;overflow=hidden;" parent="tumG6ZHAliBYtRT1aIHx-21" vertex="1">
          <mxGeometry x="50" width="120" height="30" as="geometry">
            <mxRectangle width="120" height="30" as="alternateBounds" />
          </mxGeometry>
        </mxCell>
        <mxCell id="tumG6ZHAliBYtRT1aIHx-24" value="&lt;span&gt;4-Byte Word&lt;/span&gt;" style="shape=partialRectangle;html=1;whiteSpace=wrap;connectable=0;fillColor=none;top=0;left=0;bottom=0;right=0;overflow=hidden;pointerEvents=1;" parent="tumG6ZHAliBYtRT1aIHx-21" vertex="1">
          <mxGeometry x="170" width="120" height="30" as="geometry">
            <mxRectangle width="120" height="30" as="alternateBounds" />
          </mxGeometry>
        </mxCell>
        <mxCell id="tumG6ZHAliBYtRT1aIHx-25" value="" style="shape=tableRow;horizontal=0;startSize=0;swimlaneHead=0;swimlaneBody=0;top=0;left=0;bottom=0;right=0;collapsible=0;dropTarget=0;fillColor=none;points=[[0,0.5],[1,0.5]];portConstraint=eastwest;" parent="tumG6ZHAliBYtRT1aIHx-0" vertex="1">
          <mxGeometry y="180" width="290" height="30" as="geometry" />
        </mxCell>
        <mxCell id="tumG6ZHAliBYtRT1aIHx-26" value="Valid&lt;br&gt;6" style="shape=partialRectangle;html=1;whiteSpace=wrap;connectable=0;fillColor=none;top=0;left=0;bottom=0;right=0;overflow=hidden;" parent="tumG6ZHAliBYtRT1aIHx-25" vertex="1">
          <mxGeometry width="50" height="30" as="geometry">
            <mxRectangle width="50" height="30" as="alternateBounds" />
          </mxGeometry>
        </mxCell>
        <mxCell id="tumG6ZHAliBYtRT1aIHx-27" value="Tag | Byte Offset" style="shape=partialRectangle;html=1;whiteSpace=wrap;connectable=0;fillColor=none;top=0;left=0;bottom=0;right=0;overflow=hidden;" parent="tumG6ZHAliBYtRT1aIHx-25" vertex="1">
          <mxGeometry x="50" width="120" height="30" as="geometry">
            <mxRectangle width="120" height="30" as="alternateBounds" />
          </mxGeometry>
        </mxCell>
        <mxCell id="tumG6ZHAliBYtRT1aIHx-28" value="&lt;span&gt;4-Byte Word&lt;/span&gt;" style="shape=partialRectangle;html=1;whiteSpace=wrap;connectable=0;fillColor=none;top=0;left=0;bottom=0;right=0;overflow=hidden;pointerEvents=1;" parent="tumG6ZHAliBYtRT1aIHx-25" vertex="1">
          <mxGeometry x="170" width="120" height="30" as="geometry">
            <mxRectangle width="120" height="30" as="alternateBounds" />
          </mxGeometry>
        </mxCell>
        <mxCell id="tumG6ZHAliBYtRT1aIHx-29" value="" style="shape=tableRow;horizontal=0;startSize=0;swimlaneHead=0;swimlaneBody=0;top=0;left=0;bottom=0;right=0;collapsible=0;dropTarget=0;fillColor=none;points=[[0,0.5],[1,0.5]];portConstraint=eastwest;" parent="tumG6ZHAliBYtRT1aIHx-0" vertex="1">
          <mxGeometry y="210" width="290" height="30" as="geometry" />
        </mxCell>
        <mxCell id="tumG6ZHAliBYtRT1aIHx-30" value="Valid&lt;br&gt;7" style="shape=partialRectangle;html=1;whiteSpace=wrap;connectable=0;fillColor=none;top=0;left=0;bottom=0;right=0;overflow=hidden;" parent="tumG6ZHAliBYtRT1aIHx-29" vertex="1">
          <mxGeometry width="50" height="30" as="geometry">
            <mxRectangle width="50" height="30" as="alternateBounds" />
          </mxGeometry>
        </mxCell>
        <mxCell id="tumG6ZHAliBYtRT1aIHx-31" value="Tag | Byte Offset" style="shape=partialRectangle;html=1;whiteSpace=wrap;connectable=0;fillColor=none;top=0;left=0;bottom=0;right=0;overflow=hidden;" parent="tumG6ZHAliBYtRT1aIHx-29" vertex="1">
          <mxGeometry x="50" width="120" height="30" as="geometry">
            <mxRectangle width="120" height="30" as="alternateBounds" />
          </mxGeometry>
        </mxCell>
        <mxCell id="tumG6ZHAliBYtRT1aIHx-32" value="&lt;span&gt;4-Byte Word&lt;/span&gt;" style="shape=partialRectangle;html=1;whiteSpace=wrap;connectable=0;fillColor=none;top=0;left=0;bottom=0;right=0;overflow=hidden;pointerEvents=1;" parent="tumG6ZHAliBYtRT1aIHx-29" vertex="1">
          <mxGeometry x="170" width="120" height="30" as="geometry">
            <mxRectangle width="120" height="30" as="alternateBounds" />
          </mxGeometry>
        </mxCell>
        <mxCell id="tumG6ZHAliBYtRT1aIHx-65" value="" style="shape=table;html=1;whiteSpace=wrap;startSize=0;container=1;collapsible=0;childLayout=tableLayout;" parent="L6iec803-tzA5G3uRX5k-1" vertex="1">
          <mxGeometry x="470" y="140" width="290" height="240" as="geometry" />
        </mxCell>
        <mxCell id="tumG6ZHAliBYtRT1aIHx-66" value="" style="shape=tableRow;horizontal=0;startSize=0;swimlaneHead=0;swimlaneBody=0;top=0;left=0;bottom=0;right=0;collapsible=0;dropTarget=0;fillColor=none;points=[[0,0.5],[1,0.5]];portConstraint=eastwest;" parent="tumG6ZHAliBYtRT1aIHx-65" vertex="1">
          <mxGeometry width="290" height="30" as="geometry" />
        </mxCell>
        <mxCell id="tumG6ZHAliBYtRT1aIHx-67" value="Valid&lt;br&gt;0" style="shape=partialRectangle;html=1;whiteSpace=wrap;connectable=0;fillColor=none;top=0;left=0;bottom=0;right=0;overflow=hidden;" parent="tumG6ZHAliBYtRT1aIHx-66" vertex="1">
          <mxGeometry width="50" height="30" as="geometry">
            <mxRectangle width="50" height="30" as="alternateBounds" />
          </mxGeometry>
        </mxCell>
        <mxCell id="tumG6ZHAliBYtRT1aIHx-68" value="Tag | Byte Offset" style="shape=partialRectangle;html=1;whiteSpace=wrap;connectable=0;fillColor=none;top=0;left=0;bottom=0;right=0;overflow=hidden;" parent="tumG6ZHAliBYtRT1aIHx-66" vertex="1">
          <mxGeometry x="50" width="120" height="30" as="geometry">
            <mxRectangle width="120" height="30" as="alternateBounds" />
          </mxGeometry>
        </mxCell>
        <mxCell id="tumG6ZHAliBYtRT1aIHx-69" value="&lt;span&gt;4-Byte Word&lt;/span&gt;" style="shape=partialRectangle;html=1;whiteSpace=wrap;connectable=0;fillColor=none;top=0;left=0;bottom=0;right=0;overflow=hidden;" parent="tumG6ZHAliBYtRT1aIHx-66" vertex="1">
          <mxGeometry x="170" width="120" height="30" as="geometry">
            <mxRectangle width="120" height="30" as="alternateBounds" />
          </mxGeometry>
        </mxCell>
        <mxCell id="tumG6ZHAliBYtRT1aIHx-70" value="" style="shape=tableRow;horizontal=0;startSize=0;swimlaneHead=0;swimlaneBody=0;top=0;left=0;bottom=0;right=0;collapsible=0;dropTarget=0;fillColor=none;points=[[0,0.5],[1,0.5]];portConstraint=eastwest;" parent="tumG6ZHAliBYtRT1aIHx-65" vertex="1">
          <mxGeometry y="30" width="290" height="30" as="geometry" />
        </mxCell>
        <mxCell id="tumG6ZHAliBYtRT1aIHx-71" value="Valid&lt;br&gt;1" style="shape=partialRectangle;html=1;whiteSpace=wrap;connectable=0;fillColor=none;top=0;left=0;bottom=0;right=0;overflow=hidden;" parent="tumG6ZHAliBYtRT1aIHx-70" vertex="1">
          <mxGeometry width="50" height="30" as="geometry">
            <mxRectangle width="50" height="30" as="alternateBounds" />
          </mxGeometry>
        </mxCell>
        <mxCell id="tumG6ZHAliBYtRT1aIHx-72" value="Tag | Byte Offset" style="shape=partialRectangle;html=1;whiteSpace=wrap;connectable=0;fillColor=none;top=0;left=0;bottom=0;right=0;overflow=hidden;" parent="tumG6ZHAliBYtRT1aIHx-70" vertex="1">
          <mxGeometry x="50" width="120" height="30" as="geometry">
            <mxRectangle width="120" height="30" as="alternateBounds" />
          </mxGeometry>
        </mxCell>
        <mxCell id="tumG6ZHAliBYtRT1aIHx-73" value="&lt;span&gt;4-Byte Word&lt;/span&gt;" style="shape=partialRectangle;html=1;whiteSpace=wrap;connectable=0;fillColor=none;top=0;left=0;bottom=0;right=0;overflow=hidden;" parent="tumG6ZHAliBYtRT1aIHx-70" vertex="1">
          <mxGeometry x="170" width="120" height="30" as="geometry">
            <mxRectangle width="120" height="30" as="alternateBounds" />
          </mxGeometry>
        </mxCell>
        <mxCell id="tumG6ZHAliBYtRT1aIHx-74" value="" style="shape=tableRow;horizontal=0;startSize=0;swimlaneHead=0;swimlaneBody=0;top=0;left=0;bottom=0;right=0;collapsible=0;dropTarget=0;fillColor=none;points=[[0,0.5],[1,0.5]];portConstraint=eastwest;" parent="tumG6ZHAliBYtRT1aIHx-65" vertex="1">
          <mxGeometry y="60" width="290" height="30" as="geometry" />
        </mxCell>
        <mxCell id="tumG6ZHAliBYtRT1aIHx-75" value="Valid&lt;br&gt;2" style="shape=partialRectangle;html=1;whiteSpace=wrap;connectable=0;fillColor=none;top=0;left=0;bottom=0;right=0;overflow=hidden;" parent="tumG6ZHAliBYtRT1aIHx-74" vertex="1">
          <mxGeometry width="50" height="30" as="geometry">
            <mxRectangle width="50" height="30" as="alternateBounds" />
          </mxGeometry>
        </mxCell>
        <mxCell id="tumG6ZHAliBYtRT1aIHx-76" value="Tag | Byte Offset" style="shape=partialRectangle;html=1;whiteSpace=wrap;connectable=0;fillColor=none;top=0;left=0;bottom=0;right=0;overflow=hidden;" parent="tumG6ZHAliBYtRT1aIHx-74" vertex="1">
          <mxGeometry x="50" width="120" height="30" as="geometry">
            <mxRectangle width="120" height="30" as="alternateBounds" />
          </mxGeometry>
        </mxCell>
        <mxCell id="tumG6ZHAliBYtRT1aIHx-77" value="&lt;span&gt;4-Byte Word&lt;/span&gt;" style="shape=partialRectangle;html=1;whiteSpace=wrap;connectable=0;fillColor=none;top=0;left=0;bottom=0;right=0;overflow=hidden;pointerEvents=1;" parent="tumG6ZHAliBYtRT1aIHx-74" vertex="1">
          <mxGeometry x="170" width="120" height="30" as="geometry">
            <mxRectangle width="120" height="30" as="alternateBounds" />
          </mxGeometry>
        </mxCell>
        <mxCell id="tumG6ZHAliBYtRT1aIHx-78" value="" style="shape=tableRow;horizontal=0;startSize=0;swimlaneHead=0;swimlaneBody=0;top=0;left=0;bottom=0;right=0;collapsible=0;dropTarget=0;fillColor=none;points=[[0,0.5],[1,0.5]];portConstraint=eastwest;" parent="tumG6ZHAliBYtRT1aIHx-65" vertex="1">
          <mxGeometry y="90" width="290" height="30" as="geometry" />
        </mxCell>
        <mxCell id="tumG6ZHAliBYtRT1aIHx-79" value="Valid&lt;br&gt;3" style="shape=partialRectangle;html=1;whiteSpace=wrap;connectable=0;fillColor=none;top=0;left=0;bottom=0;right=0;overflow=hidden;" parent="tumG6ZHAliBYtRT1aIHx-78" vertex="1">
          <mxGeometry width="50" height="30" as="geometry">
            <mxRectangle width="50" height="30" as="alternateBounds" />
          </mxGeometry>
        </mxCell>
        <mxCell id="tumG6ZHAliBYtRT1aIHx-80" value="Tag | Byte Offset" style="shape=partialRectangle;html=1;whiteSpace=wrap;connectable=0;fillColor=none;top=0;left=0;bottom=0;right=0;overflow=hidden;" parent="tumG6ZHAliBYtRT1aIHx-78" vertex="1">
          <mxGeometry x="50" width="120" height="30" as="geometry">
            <mxRectangle width="120" height="30" as="alternateBounds" />
          </mxGeometry>
        </mxCell>
        <mxCell id="tumG6ZHAliBYtRT1aIHx-81" value="&lt;span&gt;4-Byte Word&lt;/span&gt;" style="shape=partialRectangle;html=1;whiteSpace=wrap;connectable=0;fillColor=none;top=0;left=0;bottom=0;right=0;overflow=hidden;pointerEvents=1;" parent="tumG6ZHAliBYtRT1aIHx-78" vertex="1">
          <mxGeometry x="170" width="120" height="30" as="geometry">
            <mxRectangle width="120" height="30" as="alternateBounds" />
          </mxGeometry>
        </mxCell>
        <mxCell id="tumG6ZHAliBYtRT1aIHx-82" value="" style="shape=tableRow;horizontal=0;startSize=0;swimlaneHead=0;swimlaneBody=0;top=0;left=0;bottom=0;right=0;collapsible=0;dropTarget=0;fillColor=none;points=[[0,0.5],[1,0.5]];portConstraint=eastwest;" parent="tumG6ZHAliBYtRT1aIHx-65" vertex="1">
          <mxGeometry y="120" width="290" height="30" as="geometry" />
        </mxCell>
        <mxCell id="tumG6ZHAliBYtRT1aIHx-83" value="Valid&lt;br&gt;4" style="shape=partialRectangle;html=1;whiteSpace=wrap;connectable=0;fillColor=none;top=0;left=0;bottom=0;right=0;overflow=hidden;" parent="tumG6ZHAliBYtRT1aIHx-82" vertex="1">
          <mxGeometry width="50" height="30" as="geometry">
            <mxRectangle width="50" height="30" as="alternateBounds" />
          </mxGeometry>
        </mxCell>
        <mxCell id="tumG6ZHAliBYtRT1aIHx-84" value="Tag | Byte Offset" style="shape=partialRectangle;html=1;whiteSpace=wrap;connectable=0;fillColor=none;top=0;left=0;bottom=0;right=0;overflow=hidden;" parent="tumG6ZHAliBYtRT1aIHx-82" vertex="1">
          <mxGeometry x="50" width="120" height="30" as="geometry">
            <mxRectangle width="120" height="30" as="alternateBounds" />
          </mxGeometry>
        </mxCell>
        <mxCell id="tumG6ZHAliBYtRT1aIHx-85" value="&lt;span&gt;4-Byte Word&lt;/span&gt;" style="shape=partialRectangle;html=1;whiteSpace=wrap;connectable=0;fillColor=none;top=0;left=0;bottom=0;right=0;overflow=hidden;pointerEvents=1;" parent="tumG6ZHAliBYtRT1aIHx-82" vertex="1">
          <mxGeometry x="170" width="120" height="30" as="geometry">
            <mxRectangle width="120" height="30" as="alternateBounds" />
          </mxGeometry>
        </mxCell>
        <mxCell id="tumG6ZHAliBYtRT1aIHx-86" value="" style="shape=tableRow;horizontal=0;startSize=0;swimlaneHead=0;swimlaneBody=0;top=0;left=0;bottom=0;right=0;collapsible=0;dropTarget=0;fillColor=none;points=[[0,0.5],[1,0.5]];portConstraint=eastwest;" parent="tumG6ZHAliBYtRT1aIHx-65" vertex="1">
          <mxGeometry y="150" width="290" height="30" as="geometry" />
        </mxCell>
        <mxCell id="tumG6ZHAliBYtRT1aIHx-87" value="Valid&lt;br&gt;5" style="shape=partialRectangle;html=1;whiteSpace=wrap;connectable=0;fillColor=none;top=0;left=0;bottom=0;right=0;overflow=hidden;" parent="tumG6ZHAliBYtRT1aIHx-86" vertex="1">
          <mxGeometry width="50" height="30" as="geometry">
            <mxRectangle width="50" height="30" as="alternateBounds" />
          </mxGeometry>
        </mxCell>
        <mxCell id="tumG6ZHAliBYtRT1aIHx-88" value="Tag | Byte Offset" style="shape=partialRectangle;html=1;whiteSpace=wrap;connectable=0;fillColor=none;top=0;left=0;bottom=0;right=0;overflow=hidden;" parent="tumG6ZHAliBYtRT1aIHx-86" vertex="1">
          <mxGeometry x="50" width="120" height="30" as="geometry">
            <mxRectangle width="120" height="30" as="alternateBounds" />
          </mxGeometry>
        </mxCell>
        <mxCell id="tumG6ZHAliBYtRT1aIHx-89" value="&lt;span&gt;4-Byte Word&lt;/span&gt;" style="shape=partialRectangle;html=1;whiteSpace=wrap;connectable=0;fillColor=none;top=0;left=0;bottom=0;right=0;overflow=hidden;pointerEvents=1;" parent="tumG6ZHAliBYtRT1aIHx-86" vertex="1">
          <mxGeometry x="170" width="120" height="30" as="geometry">
            <mxRectangle width="120" height="30" as="alternateBounds" />
          </mxGeometry>
        </mxCell>
        <mxCell id="tumG6ZHAliBYtRT1aIHx-90" value="" style="shape=tableRow;horizontal=0;startSize=0;swimlaneHead=0;swimlaneBody=0;top=0;left=0;bottom=0;right=0;collapsible=0;dropTarget=0;fillColor=none;points=[[0,0.5],[1,0.5]];portConstraint=eastwest;" parent="tumG6ZHAliBYtRT1aIHx-65" vertex="1">
          <mxGeometry y="180" width="290" height="30" as="geometry" />
        </mxCell>
        <mxCell id="tumG6ZHAliBYtRT1aIHx-91" value="Valid&lt;br&gt;6" style="shape=partialRectangle;html=1;whiteSpace=wrap;connectable=0;fillColor=none;top=0;left=0;bottom=0;right=0;overflow=hidden;" parent="tumG6ZHAliBYtRT1aIHx-90" vertex="1">
          <mxGeometry width="50" height="30" as="geometry">
            <mxRectangle width="50" height="30" as="alternateBounds" />
          </mxGeometry>
        </mxCell>
        <mxCell id="tumG6ZHAliBYtRT1aIHx-92" value="Tag | Byte Offset" style="shape=partialRectangle;html=1;whiteSpace=wrap;connectable=0;fillColor=none;top=0;left=0;bottom=0;right=0;overflow=hidden;" parent="tumG6ZHAliBYtRT1aIHx-90" vertex="1">
          <mxGeometry x="50" width="120" height="30" as="geometry">
            <mxRectangle width="120" height="30" as="alternateBounds" />
          </mxGeometry>
        </mxCell>
        <mxCell id="tumG6ZHAliBYtRT1aIHx-93" value="&lt;span&gt;4-Byte Word&lt;/span&gt;" style="shape=partialRectangle;html=1;whiteSpace=wrap;connectable=0;fillColor=none;top=0;left=0;bottom=0;right=0;overflow=hidden;pointerEvents=1;" parent="tumG6ZHAliBYtRT1aIHx-90" vertex="1">
          <mxGeometry x="170" width="120" height="30" as="geometry">
            <mxRectangle width="120" height="30" as="alternateBounds" />
          </mxGeometry>
        </mxCell>
        <mxCell id="tumG6ZHAliBYtRT1aIHx-94" value="" style="shape=tableRow;horizontal=0;startSize=0;swimlaneHead=0;swimlaneBody=0;top=0;left=0;bottom=0;right=0;collapsible=0;dropTarget=0;fillColor=none;points=[[0,0.5],[1,0.5]];portConstraint=eastwest;" parent="tumG6ZHAliBYtRT1aIHx-65" vertex="1">
          <mxGeometry y="210" width="290" height="30" as="geometry" />
        </mxCell>
        <mxCell id="tumG6ZHAliBYtRT1aIHx-95" value="Valid&lt;br&gt;7" style="shape=partialRectangle;html=1;whiteSpace=wrap;connectable=0;fillColor=none;top=0;left=0;bottom=0;right=0;overflow=hidden;" parent="tumG6ZHAliBYtRT1aIHx-94" vertex="1">
          <mxGeometry width="50" height="30" as="geometry">
            <mxRectangle width="50" height="30" as="alternateBounds" />
          </mxGeometry>
        </mxCell>
        <mxCell id="tumG6ZHAliBYtRT1aIHx-96" value="Tag | Byte Offset" style="shape=partialRectangle;html=1;whiteSpace=wrap;connectable=0;fillColor=none;top=0;left=0;bottom=0;right=0;overflow=hidden;" parent="tumG6ZHAliBYtRT1aIHx-94" vertex="1">
          <mxGeometry x="50" width="120" height="30" as="geometry">
            <mxRectangle width="120" height="30" as="alternateBounds" />
          </mxGeometry>
        </mxCell>
        <mxCell id="tumG6ZHAliBYtRT1aIHx-97" value="&lt;span&gt;4-Byte Word&lt;/span&gt;" style="shape=partialRectangle;html=1;whiteSpace=wrap;connectable=0;fillColor=none;top=0;left=0;bottom=0;right=0;overflow=hidden;pointerEvents=1;" parent="tumG6ZHAliBYtRT1aIHx-94" vertex="1">
          <mxGeometry x="170" width="120" height="30" as="geometry">
            <mxRectangle width="120" height="30" as="alternateBounds" />
          </mxGeometry>
        </mxCell>
        <mxCell id="tumG6ZHAliBYtRT1aIHx-98" value="" style="endArrow=classic;html=1;rounded=0;fontFamily=Helvetica;entryX=0;entryY=0.5;entryDx=0;entryDy=0;edgeStyle=orthogonalEdgeStyle;" parent="L6iec803-tzA5G3uRX5k-1" target="tumG6ZHAliBYtRT1aIHx-94" edge="1">
          <mxGeometry width="50" height="50" relative="1" as="geometry">
            <mxPoint x="410" y="100" as="sourcePoint" />
            <mxPoint x="410" y="130" as="targetPoint" />
          </mxGeometry>
        </mxCell>
        <mxCell id="wGGbKxWoBTrNb8pjm42K-20" value="Index" style="edgeLabel;html=1;align=center;verticalAlign=middle;resizable=0;points=[];fontFamily=Helvetica;" parent="tumG6ZHAliBYtRT1aIHx-98" vertex="1" connectable="0">
          <mxGeometry x="-0.7488" y="1" relative="1" as="geometry">
            <mxPoint as="offset" />
          </mxGeometry>
        </mxCell>
        <mxCell id="tumG6ZHAliBYtRT1aIHx-99" value="" style="endArrow=classic;html=1;rounded=0;fontFamily=Helvetica;entryX=1;entryY=0.5;entryDx=0;entryDy=0;startArrow=oval;startFill=1;" parent="L6iec803-tzA5G3uRX5k-1" target="tumG6ZHAliBYtRT1aIHx-29" edge="1">
          <mxGeometry width="50" height="50" relative="1" as="geometry">
            <mxPoint x="410" y="365" as="sourcePoint" />
            <mxPoint x="400" y="420" as="targetPoint" />
          </mxGeometry>
        </mxCell>
        <mxCell id="tumG6ZHAliBYtRT1aIHx-100" value="" style="shape=image;html=1;verticalAlign=top;verticalLabelPosition=bottom;labelBackgroundColor=#ffffff;imageAspect=0;aspect=fixed;image=https://cdn0.iconfinder.com/data/icons/octicons/1024/primitive-dot-128.png;fontFamily=Helvetica;fillColor=none;" parent="L6iec803-tzA5G3uRX5k-1" vertex="1">
          <mxGeometry x="360" y="150" width="28" height="28" as="geometry" />
        </mxCell>
        <mxCell id="tumG6ZHAliBYtRT1aIHx-101" value="" style="shape=image;html=1;verticalAlign=top;verticalLabelPosition=bottom;labelBackgroundColor=#ffffff;imageAspect=0;aspect=fixed;image=https://cdn0.iconfinder.com/data/icons/octicons/1024/primitive-dot-128.png;fontFamily=Helvetica;fillColor=none;" parent="L6iec803-tzA5G3uRX5k-1" vertex="1">
          <mxGeometry x="360" y="220" width="28" height="28" as="geometry" />
        </mxCell>
        <mxCell id="tumG6ZHAliBYtRT1aIHx-102" value="" style="shape=image;html=1;verticalAlign=top;verticalLabelPosition=bottom;labelBackgroundColor=#ffffff;imageAspect=0;aspect=fixed;image=https://cdn0.iconfinder.com/data/icons/octicons/1024/primitive-dot-128.png;fontFamily=Helvetica;fillColor=none;" parent="L6iec803-tzA5G3uRX5k-1" vertex="1">
          <mxGeometry x="360" y="290" width="28" height="28" as="geometry" />
        </mxCell>
        <mxCell id="tumG6ZHAliBYtRT1aIHx-103" value="" style="shape=image;html=1;verticalAlign=top;verticalLabelPosition=bottom;labelBackgroundColor=#ffffff;imageAspect=0;aspect=fixed;image=https://cdn0.iconfinder.com/data/icons/octicons/1024/primitive-dot-128.png;fontFamily=Helvetica;fillColor=none;" parent="L6iec803-tzA5G3uRX5k-1" vertex="1">
          <mxGeometry x="425" y="150" width="28" height="28" as="geometry" />
        </mxCell>
        <mxCell id="tumG6ZHAliBYtRT1aIHx-104" value="" style="shape=image;html=1;verticalAlign=top;verticalLabelPosition=bottom;labelBackgroundColor=#ffffff;imageAspect=0;aspect=fixed;image=https://cdn0.iconfinder.com/data/icons/octicons/1024/primitive-dot-128.png;fontFamily=Helvetica;fillColor=none;" parent="L6iec803-tzA5G3uRX5k-1" vertex="1">
          <mxGeometry x="425" y="220" width="28" height="28" as="geometry" />
        </mxCell>
        <mxCell id="tumG6ZHAliBYtRT1aIHx-105" value="" style="shape=image;html=1;verticalAlign=top;verticalLabelPosition=bottom;labelBackgroundColor=#ffffff;imageAspect=0;aspect=fixed;image=https://cdn0.iconfinder.com/data/icons/octicons/1024/primitive-dot-128.png;fontFamily=Helvetica;fillColor=none;" parent="L6iec803-tzA5G3uRX5k-1" vertex="1">
          <mxGeometry x="425" y="290" width="28" height="28" as="geometry" />
        </mxCell>
        <mxCell id="tumG6ZHAliBYtRT1aIHx-106" value="" style="endArrow=classic;html=1;rounded=0;fontFamily=Helvetica;exitX=0.076;exitY=0.991;exitDx=0;exitDy=0;exitPerimeter=0;edgeStyle=orthogonalEdgeStyle;" parent="L6iec803-tzA5G3uRX5k-1" source="tumG6ZHAliBYtRT1aIHx-29" edge="1">
          <mxGeometry width="50" height="50" relative="1" as="geometry">
            <mxPoint x="120" y="470" as="sourcePoint" />
            <mxPoint x="300" y="500" as="targetPoint" />
            <Array as="points">
              <mxPoint x="82" y="500" />
            </Array>
          </mxGeometry>
        </mxCell>
        <mxCell id="wGGbKxWoBTrNb8pjm42K-21" value="valid bit" style="edgeLabel;html=1;align=center;verticalAlign=middle;resizable=0;points=[];fontFamily=Helvetica;" parent="tumG6ZHAliBYtRT1aIHx-106" vertex="1" connectable="0">
          <mxGeometry x="-0.5098" relative="1" as="geometry">
            <mxPoint x="3" y="-42" as="offset" />
          </mxGeometry>
        </mxCell>
        <mxCell id="tumG6ZHAliBYtRT1aIHx-107" value="" style="endArrow=classic;html=1;rounded=0;fontFamily=Helvetica;" parent="L6iec803-tzA5G3uRX5k-1" edge="1">
          <mxGeometry width="50" height="50" relative="1" as="geometry">
            <mxPoint x="100" y="460" as="sourcePoint" />
            <mxPoint x="170" y="460" as="targetPoint" />
          </mxGeometry>
        </mxCell>
        <mxCell id="wGGbKxWoBTrNb8pjm42K-0" value="address tag" style="edgeLabel;html=1;align=center;verticalAlign=middle;resizable=0;points=[];fontFamily=Helvetica;" parent="tumG6ZHAliBYtRT1aIHx-107" vertex="1" connectable="0">
          <mxGeometry x="-0.4909" y="4" relative="1" as="geometry">
            <mxPoint x="2" y="4" as="offset" />
          </mxGeometry>
        </mxCell>
        <mxCell id="wGGbKxWoBTrNb8pjm42K-3" style="edgeStyle=orthogonalEdgeStyle;rounded=0;orthogonalLoop=1;jettySize=auto;html=1;exitX=1;exitY=0.5;exitDx=0;exitDy=0;fontFamily=Helvetica;startArrow=oval;startFill=1;" parent="L6iec803-tzA5G3uRX5k-1" source="wGGbKxWoBTrNb8pjm42K-1" edge="1">
          <mxGeometry relative="1" as="geometry">
            <mxPoint x="300" y="464.81818181818176" as="targetPoint" />
          </mxGeometry>
        </mxCell>
        <mxCell id="wGGbKxWoBTrNb8pjm42K-1" value="Equal" style="rounded=1;whiteSpace=wrap;html=1;fontFamily=Helvetica;fillColor=default;" parent="L6iec803-tzA5G3uRX5k-1" vertex="1">
          <mxGeometry x="170" y="450" width="80" height="30" as="geometry" />
        </mxCell>
        <mxCell id="wGGbKxWoBTrNb8pjm42K-2" value="" style="endArrow=classic;html=1;rounded=0;fontFamily=Helvetica;exitX=0.475;exitY=1.015;exitDx=0;exitDy=0;exitPerimeter=0;entryX=0.347;entryY=0;entryDx=0;entryDy=0;entryPerimeter=0;" parent="L6iec803-tzA5G3uRX5k-1" source="tumG6ZHAliBYtRT1aIHx-29" target="wGGbKxWoBTrNb8pjm42K-1" edge="1">
          <mxGeometry width="50" height="50" relative="1" as="geometry">
            <mxPoint x="170" y="440" as="sourcePoint" />
            <mxPoint x="200" y="440" as="targetPoint" />
          </mxGeometry>
        </mxCell>
        <mxCell id="wGGbKxWoBTrNb8pjm42K-29" style="edgeStyle=orthogonalEdgeStyle;rounded=0;orthogonalLoop=1;jettySize=auto;html=1;exitX=1;exitY=0.5;exitDx=0;exitDy=0;exitPerimeter=0;entryX=1;entryY=0.5;entryDx=0;entryDy=0;fontFamily=Helvetica;startArrow=oval;startFill=1;" parent="L6iec803-tzA5G3uRX5k-1" source="wGGbKxWoBTrNb8pjm42K-4" target="wGGbKxWoBTrNb8pjm42K-28" edge="1">
          <mxGeometry relative="1" as="geometry">
            <Array as="points">
              <mxPoint x="360" y="480" />
            </Array>
          </mxGeometry>
        </mxCell>
        <mxCell id="wGGbKxWoBTrNb8pjm42K-4" value="" style="shape=or;whiteSpace=wrap;html=1;fontFamily=Helvetica;fillColor=default;" parent="L6iec803-tzA5G3uRX5k-1" vertex="1">
          <mxGeometry x="300" y="450" width="40" height="60" as="geometry" />
        </mxCell>
        <mxCell id="wGGbKxWoBTrNb8pjm42K-30" style="edgeStyle=orthogonalEdgeStyle;rounded=0;orthogonalLoop=1;jettySize=auto;html=1;exitX=1;exitY=0.5;exitDx=0;exitDy=0;exitPerimeter=0;entryX=0;entryY=0.5;entryDx=0;entryDy=0;fontFamily=Helvetica;startArrow=oval;startFill=1;" parent="L6iec803-tzA5G3uRX5k-1" source="wGGbKxWoBTrNb8pjm42K-23" target="wGGbKxWoBTrNb8pjm42K-28" edge="1">
          <mxGeometry relative="1" as="geometry" />
        </mxCell>
        <mxCell id="wGGbKxWoBTrNb8pjm42K-23" value="" style="shape=or;whiteSpace=wrap;html=1;fontFamily=Helvetica;fillColor=default;rotation=-180;" parent="L6iec803-tzA5G3uRX5k-1" vertex="1">
          <mxGeometry x="453" y="450" width="40" height="60" as="geometry" />
        </mxCell>
        <mxCell id="wGGbKxWoBTrNb8pjm42K-24" value="" style="endArrow=classic;html=1;rounded=0;fontFamily=Helvetica;exitX=0.119;exitY=1.002;exitDx=0;exitDy=0;exitPerimeter=0;entryX=0;entryY=0.75;entryDx=0;entryDy=0;entryPerimeter=0;edgeStyle=orthogonalEdgeStyle;" parent="L6iec803-tzA5G3uRX5k-1" source="tumG6ZHAliBYtRT1aIHx-94" target="wGGbKxWoBTrNb8pjm42K-23" edge="1">
          <mxGeometry width="50" height="50" relative="1" as="geometry">
            <mxPoint x="520" y="430" as="sourcePoint" />
            <mxPoint x="570" y="380" as="targetPoint" />
          </mxGeometry>
        </mxCell>
        <mxCell id="wGGbKxWoBTrNb8pjm42K-26" style="edgeStyle=orthogonalEdgeStyle;rounded=0;orthogonalLoop=1;jettySize=auto;html=1;exitX=0;exitY=0.5;exitDx=0;exitDy=0;entryX=0;entryY=0.25;entryDx=0;entryDy=0;entryPerimeter=0;fontFamily=Helvetica;startArrow=oval;startFill=1;" parent="L6iec803-tzA5G3uRX5k-1" source="wGGbKxWoBTrNb8pjm42K-25" target="wGGbKxWoBTrNb8pjm42K-23" edge="1">
          <mxGeometry relative="1" as="geometry" />
        </mxCell>
        <mxCell id="wGGbKxWoBTrNb8pjm42K-25" value="Equal" style="rounded=1;whiteSpace=wrap;html=1;fontFamily=Helvetica;fillColor=default;" parent="L6iec803-tzA5G3uRX5k-1" vertex="1">
          <mxGeometry x="600" y="480" width="80" height="30" as="geometry" />
        </mxCell>
        <mxCell id="wGGbKxWoBTrNb8pjm42K-27" value="" style="endArrow=classic;html=1;rounded=0;fontFamily=Helvetica;exitX=0.475;exitY=1.015;exitDx=0;exitDy=0;exitPerimeter=0;entryX=0.173;entryY=-0.003;entryDx=0;entryDy=0;entryPerimeter=0;" parent="L6iec803-tzA5G3uRX5k-1" target="wGGbKxWoBTrNb8pjm42K-25" edge="1">
          <mxGeometry width="50" height="50" relative="1" as="geometry">
            <mxPoint x="614.71" y="380.44999999999993" as="sourcePoint" />
            <mxPoint x="614.72" y="450" as="targetPoint" />
          </mxGeometry>
        </mxCell>
        <mxCell id="wGGbKxWoBTrNb8pjm42K-28" value="" style="shape=trapezoid;perimeter=trapezoidPerimeter;whiteSpace=wrap;html=1;fixedSize=1;fontFamily=Helvetica;fillColor=default;rotation=-180;" parent="L6iec803-tzA5G3uRX5k-1" vertex="1">
          <mxGeometry x="350" y="465" width="90" height="30" as="geometry" />
        </mxCell>
        <mxCell id="wGGbKxWoBTrNb8pjm42K-31" value="" style="endArrow=classic;html=1;rounded=0;fontFamily=Helvetica;exitX=0.475;exitY=1.015;exitDx=0;exitDy=0;exitPerimeter=0;entryX=0.75;entryY=1;entryDx=0;entryDy=0;edgeStyle=orthogonalEdgeStyle;" parent="L6iec803-tzA5G3uRX5k-1" target="wGGbKxWoBTrNb8pjm42K-28" edge="1">
          <mxGeometry width="50" height="50" relative="1" as="geometry">
            <mxPoint x="299.9999999999999" y="380.45000000000005" as="sourcePoint" />
            <mxPoint x="300.0099999999999" y="450.0000000000001" as="targetPoint" />
            <Array as="points">
              <mxPoint x="300" y="410" />
              <mxPoint x="373" y="410" />
            </Array>
          </mxGeometry>
        </mxCell>
        <mxCell id="wGGbKxWoBTrNb8pjm42K-32" value="" style="endArrow=classic;html=1;rounded=0;fontFamily=Helvetica;exitX=0.894;exitY=0.986;exitDx=0;exitDy=0;exitPerimeter=0;entryX=0.25;entryY=1;entryDx=0;entryDy=0;edgeStyle=orthogonalEdgeStyle;" parent="L6iec803-tzA5G3uRX5k-1" source="tumG6ZHAliBYtRT1aIHx-94" target="wGGbKxWoBTrNb8pjm42K-28" edge="1">
          <mxGeometry width="50" height="50" relative="1" as="geometry">
            <mxPoint x="309.9999999999999" y="390.45000000000005" as="sourcePoint" />
            <mxPoint x="382.5" y="475.0000000000001" as="targetPoint" />
            <Array as="points">
              <mxPoint x="729" y="410" />
              <mxPoint x="418" y="410" />
              <mxPoint x="418" y="440" />
              <mxPoint x="417" y="440" />
            </Array>
          </mxGeometry>
        </mxCell>
        <mxCell id="wGGbKxWoBTrNb8pjm42K-33" value="" style="endArrow=classic;html=1;rounded=0;fontFamily=Helvetica;entryX=1;entryY=0.5;entryDx=0;entryDy=0;" parent="L6iec803-tzA5G3uRX5k-1" target="wGGbKxWoBTrNb8pjm42K-25" edge="1">
          <mxGeometry width="50" height="50" relative="1" as="geometry">
            <mxPoint x="720" y="494.33" as="sourcePoint" />
            <mxPoint x="790" y="494.33" as="targetPoint" />
          </mxGeometry>
        </mxCell>
        <mxCell id="wGGbKxWoBTrNb8pjm42K-34" value="address tag" style="edgeLabel;html=1;align=center;verticalAlign=middle;resizable=0;points=[];fontFamily=Helvetica;" parent="wGGbKxWoBTrNb8pjm42K-33" vertex="1" connectable="0">
          <mxGeometry x="-0.4909" y="4" relative="1" as="geometry">
            <mxPoint x="30" y="-3" as="offset" />
          </mxGeometry>
        </mxCell>
        <mxCell id="ris3F8msXyEH5D4dpJKQ-0" style="edgeStyle=orthogonalEdgeStyle;rounded=0;orthogonalLoop=1;jettySize=auto;html=1;exitX=1;exitY=0.5;exitDx=0;exitDy=0;startArrow=none;startFill=0;entryX=0;entryY=0.5;entryDx=0;entryDy=0;" edge="1" parent="L6iec803-tzA5G3uRX5k-1" source="Hr6EEfjjup1qawKt4PyJ-0" target="ris3F8msXyEH5D4dpJKQ-1">
          <mxGeometry relative="1" as="geometry">
            <mxPoint x="420" y="650" as="targetPoint" />
          </mxGeometry>
        </mxCell>
        <mxCell id="ris3F8msXyEH5D4dpJKQ-8" value="miss" style="edgeLabel;html=1;align=center;verticalAlign=middle;resizable=0;points=[];" vertex="1" connectable="0" parent="ris3F8msXyEH5D4dpJKQ-0">
          <mxGeometry x="0.1714" y="-1" relative="1" as="geometry">
            <mxPoint as="offset" />
          </mxGeometry>
        </mxCell>
        <mxCell id="ris3F8msXyEH5D4dpJKQ-14" style="edgeStyle=orthogonalEdgeStyle;rounded=0;orthogonalLoop=1;jettySize=auto;html=1;exitX=0.5;exitY=1;exitDx=0;exitDy=0;startArrow=none;startFill=0;entryX=0;entryY=0.5;entryDx=0;entryDy=0;" edge="1" parent="L6iec803-tzA5G3uRX5k-1" source="Hr6EEfjjup1qawKt4PyJ-0" target="ris3F8msXyEH5D4dpJKQ-15">
          <mxGeometry relative="1" as="geometry">
            <mxPoint x="200" y="940" as="targetPoint" />
            <Array as="points">
              <mxPoint x="90" y="940" />
            </Array>
          </mxGeometry>
        </mxCell>
        <mxCell id="ris3F8msXyEH5D4dpJKQ-17" value="dcif.halt" style="edgeLabel;html=1;align=center;verticalAlign=middle;resizable=0;points=[];" vertex="1" connectable="0" parent="ris3F8msXyEH5D4dpJKQ-14">
          <mxGeometry x="-0.22" y="-1" relative="1" as="geometry">
            <mxPoint as="offset" />
          </mxGeometry>
        </mxCell>
        <mxCell id="Hr6EEfjjup1qawKt4PyJ-0" value="IDLE" style="ellipse;whiteSpace=wrap;html=1;aspect=fixed;" vertex="1" parent="L6iec803-tzA5G3uRX5k-1">
          <mxGeometry x="50" y="610" width="80" height="80" as="geometry" />
        </mxCell>
        <mxCell id="ris3F8msXyEH5D4dpJKQ-3" style="edgeStyle=orthogonalEdgeStyle;rounded=0;orthogonalLoop=1;jettySize=auto;html=1;exitX=1;exitY=0.5;exitDx=0;exitDy=0;entryX=0;entryY=0.5;entryDx=0;entryDy=0;startArrow=none;startFill=0;" edge="1" parent="L6iec803-tzA5G3uRX5k-1" source="ris3F8msXyEH5D4dpJKQ-1" target="ris3F8msXyEH5D4dpJKQ-2">
          <mxGeometry relative="1" as="geometry" />
        </mxCell>
        <mxCell id="ris3F8msXyEH5D4dpJKQ-9" value="ram_dhit" style="edgeLabel;html=1;align=center;verticalAlign=middle;resizable=0;points=[];" vertex="1" connectable="0" parent="ris3F8msXyEH5D4dpJKQ-3">
          <mxGeometry x="0.2667" y="-2" relative="1" as="geometry">
            <mxPoint x="-17" y="-2" as="offset" />
          </mxGeometry>
        </mxCell>
        <mxCell id="ris3F8msXyEH5D4dpJKQ-1" value="WriteBack1" style="ellipse;whiteSpace=wrap;html=1;aspect=fixed;" vertex="1" parent="L6iec803-tzA5G3uRX5k-1">
          <mxGeometry x="240" y="610" width="80" height="80" as="geometry" />
        </mxCell>
        <mxCell id="ris3F8msXyEH5D4dpJKQ-6" style="edgeStyle=orthogonalEdgeStyle;rounded=0;orthogonalLoop=1;jettySize=auto;html=1;exitX=0.5;exitY=1;exitDx=0;exitDy=0;startArrow=none;startFill=0;" edge="1" parent="L6iec803-tzA5G3uRX5k-1" source="ris3F8msXyEH5D4dpJKQ-2" target="ris3F8msXyEH5D4dpJKQ-4">
          <mxGeometry relative="1" as="geometry" />
        </mxCell>
        <mxCell id="ris3F8msXyEH5D4dpJKQ-10" value="ram_dhit" style="edgeLabel;html=1;align=center;verticalAlign=middle;resizable=0;points=[];" vertex="1" connectable="0" parent="ris3F8msXyEH5D4dpJKQ-6">
          <mxGeometry x="-0.2667" y="1" relative="1" as="geometry">
            <mxPoint as="offset" />
          </mxGeometry>
        </mxCell>
        <mxCell id="ris3F8msXyEH5D4dpJKQ-2" value="WriteBack2" style="ellipse;whiteSpace=wrap;html=1;aspect=fixed;" vertex="1" parent="L6iec803-tzA5G3uRX5k-1">
          <mxGeometry x="410" y="610" width="80" height="80" as="geometry" />
        </mxCell>
        <mxCell id="ris3F8msXyEH5D4dpJKQ-7" style="edgeStyle=orthogonalEdgeStyle;rounded=0;orthogonalLoop=1;jettySize=auto;html=1;exitX=1;exitY=0.5;exitDx=0;exitDy=0;entryX=0;entryY=0.5;entryDx=0;entryDy=0;startArrow=none;startFill=0;" edge="1" parent="L6iec803-tzA5G3uRX5k-1" source="ris3F8msXyEH5D4dpJKQ-4" target="ris3F8msXyEH5D4dpJKQ-5">
          <mxGeometry relative="1" as="geometry" />
        </mxCell>
        <mxCell id="ris3F8msXyEH5D4dpJKQ-11" value="ram_dhit" style="edgeLabel;html=1;align=center;verticalAlign=middle;resizable=0;points=[];" vertex="1" connectable="0" parent="ris3F8msXyEH5D4dpJKQ-7">
          <mxGeometry x="0.2222" y="1" relative="1" as="geometry">
            <mxPoint as="offset" />
          </mxGeometry>
        </mxCell>
        <mxCell id="ris3F8msXyEH5D4dpJKQ-4" value="LOAD1" style="ellipse;whiteSpace=wrap;html=1;aspect=fixed;" vertex="1" parent="L6iec803-tzA5G3uRX5k-1">
          <mxGeometry x="240" y="790" width="80" height="80" as="geometry" />
        </mxCell>
        <mxCell id="ris3F8msXyEH5D4dpJKQ-12" style="edgeStyle=orthogonalEdgeStyle;rounded=0;orthogonalLoop=1;jettySize=auto;html=1;exitX=1;exitY=0.5;exitDx=0;exitDy=0;entryX=0.5;entryY=0;entryDx=0;entryDy=0;startArrow=none;startFill=0;" edge="1" parent="L6iec803-tzA5G3uRX5k-1" source="ris3F8msXyEH5D4dpJKQ-5" target="Hr6EEfjjup1qawKt4PyJ-0">
          <mxGeometry relative="1" as="geometry">
            <Array as="points">
              <mxPoint x="560" y="830" />
              <mxPoint x="560" y="560" />
              <mxPoint x="90" y="560" />
            </Array>
          </mxGeometry>
        </mxCell>
        <mxCell id="ris3F8msXyEH5D4dpJKQ-13" value="ram_dhit" style="edgeLabel;html=1;align=center;verticalAlign=middle;resizable=0;points=[];" vertex="1" connectable="0" parent="ris3F8msXyEH5D4dpJKQ-12">
          <mxGeometry x="-0.8814" y="1" relative="1" as="geometry">
            <mxPoint x="19" y="-19" as="offset" />
          </mxGeometry>
        </mxCell>
        <mxCell id="ris3F8msXyEH5D4dpJKQ-5" value="LOAD2" style="ellipse;whiteSpace=wrap;html=1;aspect=fixed;" vertex="1" parent="L6iec803-tzA5G3uRX5k-1">
          <mxGeometry x="410" y="790" width="80" height="80" as="geometry" />
        </mxCell>
        <mxCell id="ris3F8msXyEH5D4dpJKQ-16" style="edgeStyle=orthogonalEdgeStyle;rounded=0;orthogonalLoop=1;jettySize=auto;html=1;exitX=1;exitY=0.5;exitDx=0;exitDy=0;startArrow=none;startFill=0;entryX=0;entryY=0.5;entryDx=0;entryDy=0;" edge="1" parent="L6iec803-tzA5G3uRX5k-1" source="ris3F8msXyEH5D4dpJKQ-15" target="ris3F8msXyEH5D4dpJKQ-18">
          <mxGeometry relative="1" as="geometry">
            <mxPoint x="390" y="940" as="targetPoint" />
          </mxGeometry>
        </mxCell>
        <mxCell id="ris3F8msXyEH5D4dpJKQ-21" value="Left_dirty || right_dirty" style="edgeLabel;html=1;align=center;verticalAlign=middle;resizable=0;points=[];" vertex="1" connectable="0" parent="ris3F8msXyEH5D4dpJKQ-16">
          <mxGeometry x="0.2688" y="2" relative="1" as="geometry">
            <mxPoint x="-9" y="32" as="offset" />
          </mxGeometry>
        </mxCell>
        <mxCell id="ris3F8msXyEH5D4dpJKQ-27" style="edgeStyle=orthogonalEdgeStyle;rounded=0;orthogonalLoop=1;jettySize=auto;html=1;exitX=0.5;exitY=1;exitDx=0;exitDy=0;entryX=0.5;entryY=0;entryDx=0;entryDy=0;startArrow=none;startFill=0;" edge="1" parent="L6iec803-tzA5G3uRX5k-1" source="ris3F8msXyEH5D4dpJKQ-15" target="ris3F8msXyEH5D4dpJKQ-26">
          <mxGeometry relative="1" as="geometry" />
        </mxCell>
        <mxCell id="ris3F8msXyEH5D4dpJKQ-28" value="All_rows_checked" style="edgeLabel;html=1;align=center;verticalAlign=middle;resizable=0;points=[];" vertex="1" connectable="0" parent="ris3F8msXyEH5D4dpJKQ-27">
          <mxGeometry x="-0.2667" relative="1" as="geometry">
            <mxPoint as="offset" />
          </mxGeometry>
        </mxCell>
        <mxCell id="ris3F8msXyEH5D4dpJKQ-15" value="DIRTY" style="ellipse;whiteSpace=wrap;html=1;aspect=fixed;" vertex="1" parent="L6iec803-tzA5G3uRX5k-1">
          <mxGeometry x="240" y="900" width="80" height="80" as="geometry" />
        </mxCell>
        <mxCell id="ris3F8msXyEH5D4dpJKQ-20" style="edgeStyle=orthogonalEdgeStyle;rounded=0;orthogonalLoop=1;jettySize=auto;html=1;exitX=1;exitY=0.5;exitDx=0;exitDy=0;entryX=0;entryY=0.5;entryDx=0;entryDy=0;startArrow=none;startFill=0;" edge="1" parent="L6iec803-tzA5G3uRX5k-1" source="ris3F8msXyEH5D4dpJKQ-18" target="ris3F8msXyEH5D4dpJKQ-19">
          <mxGeometry relative="1" as="geometry" />
        </mxCell>
        <mxCell id="ris3F8msXyEH5D4dpJKQ-22" value="dhit" style="edgeLabel;html=1;align=center;verticalAlign=middle;resizable=0;points=[];" vertex="1" connectable="0" parent="ris3F8msXyEH5D4dpJKQ-20">
          <mxGeometry x="0.2414" relative="1" as="geometry">
            <mxPoint as="offset" />
          </mxGeometry>
        </mxCell>
        <mxCell id="ris3F8msXyEH5D4dpJKQ-18" value="FLUSH1" style="ellipse;whiteSpace=wrap;html=1;aspect=fixed;" vertex="1" parent="L6iec803-tzA5G3uRX5k-1">
          <mxGeometry x="413" y="900" width="80" height="80" as="geometry" />
        </mxCell>
        <mxCell id="ris3F8msXyEH5D4dpJKQ-24" style="edgeStyle=orthogonalEdgeStyle;rounded=0;orthogonalLoop=1;jettySize=auto;html=1;exitX=0.5;exitY=0;exitDx=0;exitDy=0;entryX=0.5;entryY=0;entryDx=0;entryDy=0;startArrow=none;startFill=0;" edge="1" parent="L6iec803-tzA5G3uRX5k-1" source="ris3F8msXyEH5D4dpJKQ-19" target="ris3F8msXyEH5D4dpJKQ-15">
          <mxGeometry relative="1" as="geometry" />
        </mxCell>
        <mxCell id="ris3F8msXyEH5D4dpJKQ-25" value="dhit" style="edgeLabel;html=1;align=center;verticalAlign=middle;resizable=0;points=[];" vertex="1" connectable="0" parent="ris3F8msXyEH5D4dpJKQ-24">
          <mxGeometry x="-0.4" relative="1" as="geometry">
            <mxPoint as="offset" />
          </mxGeometry>
        </mxCell>
        <mxCell id="ris3F8msXyEH5D4dpJKQ-19" value="FLUSH2" style="ellipse;whiteSpace=wrap;html=1;aspect=fixed;" vertex="1" parent="L6iec803-tzA5G3uRX5k-1">
          <mxGeometry x="580" y="900" width="80" height="80" as="geometry" />
        </mxCell>
        <mxCell id="ris3F8msXyEH5D4dpJKQ-26" value="HALT" style="ellipse;whiteSpace=wrap;html=1;aspect=fixed;" vertex="1" parent="L6iec803-tzA5G3uRX5k-1">
          <mxGeometry x="240" y="1020" width="80" height="80" as="geometry" />
        </mxCell>
      </root>
    </mxGraphModel>
  </diagram>
</mxfile>
